<?xml version="1.0" standalone="no"?>
<!DOCTYPE svg PUBLIC "-//W3C//DTD SVG 1.1//EN" "http://www.w3.org/Graphics/SVG/1.1/DTD/svg11.dtd" >
<svg xmlns="http://www.w3.org/2000/svg">
<metadata>
Created by FontForge 20120731 at Tue May  9 14:40:32 2017
 By admin
</metadata>
<defs>
<font id="iconfont" horiz-adv-x="1024" >
  <font-face 
    font-family="iconfont"
    font-weight="500"
    font-stretch="normal"
    units-per-em="1024"
    panose-1="2 0 6 3 0 0 0 0 0 0"
    ascent="896"
    descent="-128"
    x-height="792"
    bbox="0 -208 1618 900.455"
    underline-thickness="0"
    underline-position="0"
    unicode-range="U+0078-E852"
  />
<missing-glyph 
 />
    <glyph glyph-name=".notdef" 
 />
    <glyph glyph-name=".notdef" 
 />
    <glyph glyph-name=".null" horiz-adv-x="0" 
 />
    <glyph glyph-name="nonmarkingreturn" horiz-adv-x="341" 
 />
    <glyph glyph-name="x" unicode="x" horiz-adv-x="1001" 
d="M281 543q-27 -1 -53 -1h-83q-18 0 -36.5 -6t-32.5 -18.5t-23 -32t-9 -45.5v-76h912v41q0 16 -0.5 30t-0.5 18q0 13 -5 29t-17 29.5t-31.5 22.5t-49.5 9h-133v-97h-438v97zM955 310v-52q0 -23 0.5 -52t0.5 -58t-10.5 -47.5t-26 -30t-33 -16t-31.5 -4.5q-14 -1 -29.5 -0.5
t-29.5 0.5h-32l-45 128h-439l-44 -128h-29h-34q-20 0 -45 1q-25 0 -41 9.5t-25.5 23t-13.5 29.5t-4 30v167h911zM163 247q-12 0 -21 -8.5t-9 -21.5t9 -21.5t21 -8.5q13 0 22 8.5t9 21.5t-9 21.5t-22 8.5zM316 123q-8 -26 -14 -48q-5 -19 -10.5 -37t-7.5 -25t-3 -15t1 -14.5
t9.5 -10.5t21.5 -4h37h67h81h80h64h36q23 0 34 12t2 38q-5 13 -9.5 30.5t-9.5 34.5q-5 19 -11 39h-368zM336 498v228q0 11 2.5 23t10 21.5t20.5 15.5t34 6h188q31 0 51.5 -14.5t20.5 -52.5v-227h-327z" />
    <glyph glyph-name="user" unicode="&#xe600;" 
d="M791 120h-56q-46 0 -79 33t-33 79v36q36 43 54 101q0 3 2 5.5t5 5t4 3.5q16 16 19 40t-10 43q-6 11 -5 12q0 91 -1 99q-1 70 -40 110q-32 34 -85 44q-63 12 -122 -3q-57 -14 -87 -59q-24 -36 -26 -88q-1 -6 -1 -50.5v-50.5q1 -3 -0.5 -5.5t-3.5 -6t-3 -4.5
q-12 -21 -7 -45.5t23 -39.5q4 -3 9 -19q16 -49 51 -90v-38q0 -46 -33 -79t-79 -33h-56q-4 -1 -11.5 -3.5t-28.5 -15t-41 -29.5t-44.5 -48.5t-43.5 -71.5v-56q0 -23 16.5 -39.5t40.5 -16.5h784q24 0 40 16.5t16 39.5v56q-18 40 -43 71.5t-44.5 48.5t-40.5 29.5t-28.5 15
t-11.5 3.5v0v0z" />
    <glyph glyph-name="arrR" unicode="&#xe612;" 
d="M350 -17q-10 0 -19 7q-9 8 -10 20t7 21l308 367l-294 351q-8 10 -6.5 22t10.5 19.5t21 6.5t20 -10l310 -371q7 -8 7 -18.5t-7 -18.5l-324 -385q-9 -11 -23 -11v0z" />
    <glyph glyph-name="android" unicode="&#xe604;" 
d="M770 617q-9 97 -82.5 163t-173.5 66t-173 -66t-83 -163h512zM375 726.5q0 9.5 7 16.5t16.5 7t16 -7t6.5 -16.5t-6.5 -16.5t-16 -7t-16.5 7t-7 16.5zM606 726.5q0 9.5 7 16.5t16.5 7t16 -7t6.5 -16.5t-6.5 -16.5t-16 -7t-16.5 7t-7 16.5zM405 821l-42 75q-4 7 -11.5 3
t-3.5 -11l42 -74q8 4 15 7zM623 821l42 75q4 7 11.5 3t2.5 -11l-41 -74q-9 4 -15 7zM238 312q0 -25 -17 -42.5t-40.5 -17.5t-40.5 17.5t-17 42.5v230q0 25 17 42.5t40.5 17.5t40.5 -17.5t17 -42.5v-230zM903 312q0 -25 -17 -42.5t-40.5 -17.5t-40.5 17.5t-17 42.5v230
q0 25 17 42.5t40.5 17.5t40.5 -17.5t17 -42.5v-230zM260 592v-369q0 -25 17.5 -42.5t42.5 -17.5h41v-126q0 -24 17 -41.5t40.5 -17.5t40.5 17.5t17 41.5v126h75v-126q0 -24 17 -41.5t40.5 -17.5t40.5 17.5t17 41.5v126h42q24 0 41.5 17.5t17.5 42.5v369h-507z" />
    <glyph glyph-name="wechat" unicode="&#xe66f;" 
d="M669 528q14 0 31 -2q-21 96 -112 159t-207 63q-86 0 -158.5 -35.5t-115 -97.5t-42.5 -136q0 -124 126 -213l-31 -95l110 56q80 -16 111 -16q13 0 29 1q-9 33 -9 66q0 104 78 177t190 73zM499 614q18 0 29 -11t11 -28.5t-11 -28.5t-29 -11t-32.5 11t-14.5 28.5t14.5 28.5
t32.5 11zM278 535q-18 0 -32.5 11t-14.5 28.5t14.5 28.5t32.5 11t29 -11t11 -28.5t-11 -28.5t-29 -11zM957 282q0 94 -80 161.5t-188 67.5q-112 0 -190.5 -67t-78.5 -162t78.5 -162t190.5 -67q32 0 95 16l86 -48l-23 79q110 83 110 182zM602 322q-12 0 -22 9.5t-10 21.5
t10 22t22 10q17 0 28.5 -9.5t11.5 -22t-11.5 -22t-28.5 -9.5zM776 322q-12 0 -22 9.5t-10 21.5t10 22t22 10q17 0 28 -10t11 -22t-11 -21.5t-28 -9.5z" />
    <glyph glyph-name="radio2" unicode="&#xe671;" 
d="M503 -69h-1q-91 0 -172.5 34.5t-143 96.5t-96 143.5t-34.5 172.5v0q0 91 35 174q53 124 163 197q-2 2 5 7.5t22 13t34.5 16t45 16.5t49.5 13h-7q31 9 99 10h1q90 0 173 -35q124 -53 198 -163q1 2 6.5 -5t13.5 -22.5t16 -34.5t16.5 -44.5t13.5 -50.5v8q9 -31 9 -99v-1v0
q0 -91 -34.5 -172.5t-95.5 -143.5q-95 -94 -224 -121h7q-24 -9 -91 -10h-8v0v0zM503 784q-83 0 -158 -32q-73 -31 -129.5 -87t-86.5 -129q-32 -73 -32 -157v-1q0 -83 32 -158q48 -112 147 -179q11 -20 80 -44.5t146 -24.5h1v0q83 0 157 31.5t130 87.5t87 130t31 156v1v1
q0 82 -31 156t-87 130t-130 87.5t-157 31.5v0v0zM197 378.5q0 -126.5 89.5 -216t216 -89.5t216 89.5t89.5 216t-89.5 215.5t-216 89t-216 -89t-89.5 -215.5z" />
    <glyph glyph-name="heart" unicode="&#xe65e;" 
d="M860 621q-61 63 -146.5 63t-146.5 -63l-55 -57l-55 57q-61 63 -146.5 63t-146.5 -63q-68 -71 -68 -171.5t68 -171.5l348 -362l348 362q68 71 68 171.5t-68 171.5z" />
    <glyph glyph-name="add" unicode="&#xe616;" 
d="M462 250h-349v99h349v350h100v-349h349v-99h-349v-350h-100v349z" />
    <glyph glyph-name="fanhui" unicode="&#xe624;" 
d="M511 747q-91 0 -173.5 -35.5t-142.5 -95.5t-95 -142.5t-35 -173.5t35 -173.5t95 -142.5t142.5 -95.5t173.5 -35.5t174 35.5t142.5 95.5t95 142.5t35.5 173.5t-35.5 173.5t-95 142.5t-142.5 95.5t-174 35.5zM511 -82q-104 0 -192.5 51t-140 139.5t-51.5 192.5t51.5 192.5
t140 140t192.5 51.5t192.5 -51.5t139.5 -140t51 -192.5t-51 -192.5t-139.5 -139.5t-192.5 -51zM502 103q6 -6 6 -14.5t-6 -14.5v0q-6 -6 -14.5 -6t-14.5 6l-212 211q-6 6 -6 15t6 15v0q6 6 15 6t15 -6l211 -212v0zM291 286q-6 -7 -15 -7t-15 7v0q-6 6 -6 14.5t6 14.5
l212 211q6 7 14.5 7t14.5 -7v0q6 -6 6 -14.5t-6 -14.5l-211 -211v0zM291 286zM738 328q11 0 19.5 -8t8.5 -20v0q0 -12 -8.5 -20t-19.5 -8h-406q-12 0 -20.5 8t-8.5 20v0q0 12 8.5 20t20.5 8h406v0z" />
    <glyph glyph-name="sidebar20" unicode="&#xe61e;" 
d="M74 -7h876v-40h-876v40zM233 152h558v-40h-558v40zM870 849h-716q-33 0 -56.5 -23.5t-23.5 -56.5v-657q162 216 215 480q109 -28 223 -28t223 28q53 -264 215 -480v657q0 33 -23.5 56.5t-56.5 23.5z" />
    <glyph glyph-name="html5" unicode="&#xe601;" 
d="M163 831h700q-43 -476 -63 -738q-50 -14 -147.5 -41.5t-143.5 -41.5q-49 16 -144.5 42.5t-140.5 40.5q-22 240 -63 731q-1 7 2 7zM732 680h-440q1 -50 10.5 -148t11.5 -127h305q-1 -6 -10 -115q-15 -5 -49 -14t-51 -15q-13 6 -47 14.5t-49 16.5q-2 13 -4 39.5t-2 30.5
h-89q9 -110 13 -144q23 -7 68 -19t67 -19q6 -1 15 -4.5t16.5 -6t13.5 -2.5t13.5 2.5t16.5 6t14 4.5q22 7 67 18.5t69 19.5q5 46 13 140t13 139h-323q0 17 -3 46.5t-3 45.5h335q6 39 9 91z" />
    <glyph glyph-name="dingwei" unicode="&#xe60d;" 
d="M512 738q89 0 165 -45.5t120 -123.5t44 -169q0 -60 -54.5 -156t-125 -183.5t-149.5 -169.5q-79 82 -149.5 169.5t-125 183.5t-54.5 156q0 91 44 169t120 123.5t165 45.5zM512 230q74 0 126.5 52.5t52.5 126.5t-52.5 126.5t-126.5 52.5t-126.5 -52.5t-52.5 -126.5
t52.5 -126.5t126.5 -52.5zM512 808q-108 0 -200 -54.5t-145.5 -148.5t-53.5 -205q0 -46 22.5 -105t55.5 -113.5t79 -115.5t84 -105t79.5 -88t56 -58.5l22.5 -22.5v0l22.5 22.5t56 58.5t79 88t83.5 105t79.5 115.5t56 113.5t22.5 105q0 111 -53.5 205t-145.5 148.5t-200 54.5
v0zM512 300q-45 0 -77 32t-32 77t32 77t77 32t77 -32t32 -77t-32 -77t-77 -32v0z" />
    <glyph glyph-name="categoryindi" unicode="&#xe618;" 
d="M733 384l-442 -309v618z" />
    <glyph glyph-name="public" unicode="&#xe698;" horiz-adv-x="1058" 
d="M892 70l-430 132l430 496l-562 -496l-330 132l1057 562zM462 -128v231l133 -66z" />
    <glyph glyph-name="shangjia" unicode="&#xe626;" 
d="M826 -37h-622q-28 0 -47.5 20t-19.5 48v191q0 11 7.5 18.5t18 7.5t18 -7.5t7.5 -18.5v-191q0 -7 5 -11.5t11 -4.5h622q7 0 11.5 4.5t4.5 11.5v191q0 11 7.5 18.5t18 7.5t18.5 -7.5t8 -18.5v-191q0 -28 -20 -48t-48 -20zM779 507h-527q-11 0 -18.5 7.5t-7.5 18.5t7.5 18.5
t18.5 7.5h527q10 0 18 -7.5t8 -18.5t-8 -18.5t-18 -7.5zM525 304q-62 0 -148 62q-79 -55 -147 -55q-59 0 -104 40q-30 28 -49 68q-7 15 -9 38.5t3 42.5q5 23 19 57q23 58 88 180q28 56 73 56h532q44 0 70 -57q9 -17 35 -69q53 -109 67 -141q6 -17 7 -43v-2q2 -29 -10 -52
q-29 -59 -66.5 -88t-82.5 -29v0q-63 0 -148 61q-27 -30 -55 -47q-36 -22 -75 -22zM377.5 424q8.5 0 15.5 -6q84 -62 132 -62q54 0 104 68q7 9 17.5 10.5t19.5 -5.5q85 -66 137 -66v0q58 0 103 89q6 11 5 26v4q-1 16 -4 24q-13 30 -66 138q-26 52 -34 70q-13 27 -24 27h-532
q-13 0 -28 -28q-63 -120 -85 -175q-12 -29 -17 -50q-2 -12 -1 -26.5t4 -20.5q8 -17 18.5 -31.5t34.5 -30.5t53 -16q57 0 132 55q7 6 15.5 6z" />
    <glyph glyph-name="zhuyi" unicode="&#xe654;" 
d="M527 849q-91 0 -174 -35.5t-143 -95.5t-95.5 -143t-35.5 -174t35.5 -174t95.5 -143t143 -95.5t174 -35.5t174 35.5t143 95.5t95.5 143t35.5 174t-35.5 174t-95.5 143t-143 95.5t-174 35.5zM527 146q-27 0 -46 18.5t-19 45.5t19 46t46 19t46 -19t19 -46t-19 -45.5
t-46 -18.5zM583 387q0 -23 -16 -39.5t-39.5 -16.5t-40 16.5t-16.5 39.5v195q0 24 16.5 40.5t39.5 16.5t39.5 -16.5t16.5 -40.5v-195z" />
    <glyph glyph-name="sidebar7" unicode="&#xe630;" 
d="M437 757h-272q-12 0 -21 -8.5t-9 -21.5v-264q0 -12 9 -21t21 -9h272q13 0 21.5 9t8.5 21v264q0 13 -9 21.5t-21 8.5zM874 697h-302q-6 0 -10.5 -4.5t-4.5 -10.5v-31q0 -6 4.5 -10.5t10.5 -4.5h302q6 0 10.5 4.5t4.5 10.5v31q0 6 -4.5 10.5t-10.5 4.5zM874 546h-302
q-6 0 -10.5 -4.5t-4.5 -10.5v-30q0 -7 4.5 -11.5t10.5 -4.5h302q6 0 10.5 4.5t4.5 11.5v30q0 6 -4.5 10.5t-10.5 4.5zM437 335h-272q-12 0 -21 -9t-9 -21v-264q0 -13 9 -21.5t21 -8.5h272q13 0 21.5 8.5t8.5 21.5v264q0 12 -9 21t-21 9zM874 274h-302q-6 0 -10.5 -4.5
t-4.5 -10.5v-30q0 -6 4.5 -10.5t10.5 -4.5h302q6 0 10.5 4.5t4.5 10.5v30q0 7 -4.5 11t-10.5 4zM874 124h-302q-6 0 -10.5 -4.5t-4.5 -11.5v-30q0 -6 4.5 -10.5t10.5 -4.5h302q6 0 10.5 4.5t4.5 10.5v30q0 7 -4.5 11.5t-10.5 4.5z" />
    <glyph glyph-name="downloadbtn" unicode="&#xe673;" 
d="M521 218q-25 0 -43 23l-91 122q-20 25 -8 49q11 22 37 22h36v24q0 30 20 52t47 22q48 0 63 -39q4 -12 -7.5 -16t-15.5 7q-9 24 -40 24q-17 0 -30 -15t-13 -35v-38q0 -10 -14 -10h-46q-11 0 -15 -9q-5 -10 5 -23l91 -122q10 -12 23 -13t22 10l92 125q10 13 5 23
q-4 9 -15 9h-53q-5 0 -9 3.5t-4 8.5t4 8.5t9 3.5h53q26 0 37 -22q11 -24 -8 -48l-92 -125q-16 -21 -40 -21zM572 431q-5 0 -8.5 3.5t-3.5 8.5t3 8q9 9 18 0q3 -4 3 -8.5t-3.5 -8t-8.5 -3.5zM519 5q-106 1 -196.5 53.5t-143 143t-52 197t53 197t143 143t197 52.5t197 -53
t143 -143.5t52 -197t-53 -197t-143 -143t-197.5 -52.5v0zM520.5 742.5q-93.5 0.5 -173 -45.5t-125.5 -125.5t-46.5 -173t45.5 -172.5t125.5 -125.5t173 -46.5t172.5 46t125.5 125t46.5 172.5t-46 173t-125 125.5t-172.5 46.5zM812 385q-5 0 -8.5 4t-3.5 9q0 94 -57.5 169.5
t-148.5 100.5q-11 3 -8 14.5t15 8.5q99 -27 161 -109t62 -184q0 -5 -3.5 -9t-8.5 -4zM537 677h-1q-7 1 -16 1q-5 0 -8.5 3.5t-3.5 8.5t3.5 8.5t8.5 3.5h17q5 -1 8.5 -4.5t3.5 -8.5q-1 -12 -12 -12z" />
    <glyph glyph-name="close" unicode="&#xe6d1;" 
d="M512 -63q-91 0 -174 35.5t-142.5 95t-95 142.5t-35.5 174t35.5 174t95 142.5t142.5 95t174 35.5t174 -35.5t142.5 -95t95 -142.5t35.5 -174t-35.5 -174t-95 -142.5t-142.5 -95t-174 -35.5zM512 747q-99 0 -182.5 -48.5t-132 -132t-48.5 -182.5t48.5 -182.5t132 -132
t182.5 -48.5t182.5 48.5t132 132t48.5 182.5t-48.5 182.5t-132 132t-182.5 48.5zM665.5 188q-17.5 0 -29.5 13v0l-124 124l-124 -124q-12 -13 -29.5 -13t-30 12.5t-12.5 30t13 29.5v0l124 124l-124 124q-13 12 -13 29.5t12.5 30t30 12.5t29.5 -13v0l124 -124l124 124
q12 13 29.5 13t30 -12.5t12.5 -30t-13 -29.5v0l-124 -124l124 -124q13 -12 13 -29.5t-12.5 -30t-30 -12.5z" />
    <glyph glyph-name="fileadd" unicode="&#xe623;" 
d="M805 832h-593q-58 0 -106.5 -46t-48.5 -116v-581q0 -60 45 -109.5t115 -49.5h584q15 0 34 5t41 17t40 30t30 47.5t12 66.5v575q0 39 -15.5 71t-39.5 51t-49.5 29t-48.5 10zM913 95q0 -34 -12 -58.5t-28.5 -35.5t-33 -17.5t-28.5 -7.5h-11h-580q-32 0 -56.5 12t-35.5 27
t-17.5 34.5t-7.5 27.5t-1 12v0v582q0 51 34.5 83.5t83.5 32.5h571q33 0 57.5 -11t36.5 -27t19 -32t8 -27l1 -11v-584zM311 403v-44h174v-175h45v174h175v45h-175v175h-45v-175h-174z" />
    <glyph glyph-name="del1" unicode="&#xe606;" 
d="M512 896q-139 0 -257 -68.5t-186.5 -186.5t-68.5 -257t68.5 -257t186.5 -186.5t257 -68.5t257 68.5t186.5 186.5t68.5 257t-68.5 257t-186.5 186.5t-257 68.5zM823 73q-61 -61 -140 -94q-81 -35 -171 -35t-171 34q-79 34 -140 95t-94 140q-35 81 -35 171t34 171
q34 79 95 140t140 94q81 35 171 35t171 -34q79 -34 140 -95t94 -140q35 -81 35 -171t-34 -171q-34 -79 -95 -140zM796 348h-568q-15 0 -25.5 10.5t-10.5 25.5t10.5 25.5t25.5 10.5h568q15 0 25.5 -10.5t10.5 -25.5t-10.5 -25.5t-25.5 -10.5z" />
    <glyph glyph-name="facebook" unicode="&#xe62f;" 
d="M892 617v10v7.5v5.5q-1 29 -5 50q-5 28 -15 47q-10 20 -30 41q-20 20 -41 30q-20 10 -47 15q-21 4 -50 5h-23h-28h-282h-28h-23q-30 -1 -50 -5q-28 -5 -47 -15q-21 -10 -41 -30t-30 -41q-10 -20 -16 -47q-3 -21 -4 -50v-6.5v-6.5v-334v-7v-7v-10v-7.5v-5.5q1 -29 4 -50
q3 -12 5 -21q5 -14 11 -26q10 -20 30 -41q20 -20 41 -30q20 -10 47 -15q20 -4 50 -5h23h28h159v295h-96v110h95v103q0 58 40 96.5t100 38.5l101 -2v-106h-77q-17 0 -29 -15t-12 -33v-82h115l-17 -110h-102v-295h5h28h19h4q29 1 50 4q28 6 47 16q20 10 41 30q20 20 30 41
q10 20 15 47q4 20 5 50v5.5v7.5v10v28v290v20z" />
    <glyph glyph-name="lock" unicode="&#xe60b;" 
d="M356 431h312v117q0 64 -45.5 110t-110.5 46t-110.5 -46t-45.5 -110v-117zM863 372v-351q0 -24 -17 -41.5t-41 -17.5h-586q-24 0 -41 17.5t-17 41.5v351q0 24 17 41.5t41 17.5h20v117q0 112 80.5 192.5t192.5 80.5t192.5 -80.5t80.5 -192.5v-117h20q24 0 41 -17.5
t17 -41.5z" />
    <glyph glyph-name="sidebar12" unicode="&#xe627;" 
d="M61 -40v597h145l514 298l171 -298h67v-597h-897v0zM685 725l-289 -168h385zM858 458h-697v-399h697v399zM460 209h-199v99h199v-99zM759 209h-200v99h200v-99z" />
    <glyph glyph-name="leftjiao" unicode="&#xe66d;" 
d="M672 148v640l-320 -320z" />
    <glyph glyph-name="search" unicode="&#xe665;" 
d="M899 51l1 1l-152 151q77 98 77 222q0 96 -47.5 178t-129.5 130t-178.5 48t-178.5 -48t-129.5 -130t-47.5 -178.5t47.5 -178.5t129.5 -129.5t178 -47.5q128 0 226 81l149 -148q1 -2 3 -4q10 -11 25.5 -11t26.5 11t11 26.5t-11 26.5zM159 424.5q0 128.5 91 220t219.5 91.5
t219.5 -91.5t91 -220t-91 -219.5t-219.5 -91t-219.5 91t-91 219.5z" />
    <glyph glyph-name="look" unicode="&#xe68a;" 
d="M352 865q-40 35 -68 22t-28 -66v-808q0 -54 29 -67.5t71 20.5l429 350q41 34 42 82.5t-39 83.5z" />
    <glyph glyph-name="toolsbar" unicode="&#xe602;" 
d="M835 685h-100v79q0 28 -20 47.5t-47 19.5h-312q-27 0 -47 -19.5t-20 -47.5v-79h-100q-51 0 -87 -36t-36 -87v-500q0 -51 36 -87t87 -36h646q51 0 87 36t36 87v500q0 51 -36 87t-87 36zM340 764q0 7 4.5 12t11.5 5h312q7 0 11.5 -5t4.5 -12v-78h-344v78zM116 432v130
q0 30 21.5 51.5t51.5 21.5h646q30 0 51.5 -21.5t21.5 -51.5v-180h-143v70q0 16 -11 27.5t-28 11.5h-105q-17 0 -28.5 -11.5t-11.5 -27.5v-70h-148v70q0 16 -11.5 27.5t-27.5 11.5h-106q-16 0 -27.5 -11.5t-11.5 -27.5v-70h-133v50v0zM715 441v-169h-83v169h83zM383 441v-169
h-84v169h84zM835 -11h-646q-30 0 -51.5 21.5t-21.5 51.5v269h133v-70q0 -16 11.5 -27.5t27.5 -11.5h106q16 0 27.5 11.5t11.5 27.5v70h148v-70q0 -16 11.5 -27.5t28.5 -11.5h105q17 0 28 11.5t11 27.5v70h143v-269q0 -30 -21.5 -51.5t-51.5 -21.5z" />
    <glyph glyph-name="sidebar19" unicode="&#xe61a;" 
d="M982 554v1l-2 6l-80 199q-10 31 -37.5 49t-62.5 18h-562q-35 0 -61 -17.5t-36 -47.5l-86 -203q0 -2 -1 -5q-9 -29 -9 -59q0 -52 26.5 -96.5t72.5 -68.5v0v0v0v0q38 -21 89 -21q87 1 143 67q55 -66 142 -66q87 1 142 67q56 -67 144 -67q51 0 90 21q45 25 71 69.5t26 95.5
q0 30 -9 58zM861 391q-23 -13 -57 -13q-32 0 -58.5 15t-43.5 42q-4 9 -9 14q-12 14 -33 14t-33 -14q-4 -5 -9 -14q-16 -26 -42.5 -41.5t-57.5 -15.5t-57.5 15t-43.5 42q-4 9 -8 13q-11 14 -33 14t-33 -12q-5 -6 -9 -16q-17 -26 -44 -41t-58 -15q-33 0 -56 12v0v0
q-29 16 -46 44t-17 61q0 20 6 39q1 2 1 3l85 201q7 21 33 21h562q29 -2 36 -23l79 -197l2 -4q6 -19 6 -39q0 -33 -16.5 -61t-45.5 -44zM886.5 282q-14.5 0 -24.5 -10t-10 -25v-186q0 -8 -5.5 -13.5t-13.5 -5.5h-642q-8 0 -13.5 5.5t-5.5 13.5v183q0 14 -10 24t-25 10v0
q-14 0 -24 -10t-10 -24l1 -183q0 -36 25.5 -62t61.5 -26l642 1q36 0 62 25.5t26 61.5v186q0 15 -10 25t-24.5 10zM785 521h-546q-14 0 -24 10t-10 24t10 24t24 10h546q14 0 24 -10t10 -24t-10 -24t-24 -10z" />
    <glyph glyph-name="radio" unicode="&#xe607;" 
d="M511 -63q-91 0 -174 35q-80 34 -141.5 95.5t-95.5 142.5q-35 83 -35 173.5t35 173.5q34 81 95.5 142.5t141.5 95.5q83 35 174 35t174 -35q80 -34 142 -95.5t96 -142.5q35 -83 35 -173.5t-35 -173.5q-34 -81 -96 -142.5t-142 -95.5q-83 -35 -174 -35zM511.5 789
q-82.5 0 -158.5 -32q-72 -30 -128.5 -86.5t-87.5 -129.5q-32 -75 -32 -157.5t32 -157.5q31 -73 87.5 -129.5t128.5 -86.5q76 -32 158.5 -32t157.5 32q73 30 129 86.5t87 129.5q32 75 32 157.5t-32 157.5q-31 73 -87 129.5t-129 86.5q-75 32 -157.5 32zM458 198q-8 0 -14 6
l-122 112q-6 6 -6.5 14.5t5.5 14.5t14.5 6.5t14.5 -5.5l104 -96l216 310q5 7 13 8.5t15 -3.5t8.5 -13.5t-3.5 -15.5l-228 -329q-6 -8 -15 -9h-2z" />
    <glyph glyph-name="sidebar18" unicode="&#xe674;" 
d="M962 9h-18v416q0 34 -24 57.5t-58 23.5h-181v232q0 34 -24 58t-58 24h-437q-34 0 -58 -24t-24 -58v-729h-18q-12 0 -21 -9t-9 -21.5t9 -21.5t21 -9h900q12 0 21 9t9 21.5t-9 21.5t-21 9v0v0zM862 446q9 0 15 -6.5t6 -14.5v-416h-202v437h181zM141 738q0 9 6 15t15 6h437
q8 0 14.5 -6t6.5 -15v-729h-479v729v0zM312 556h-84q-12 0 -21 -8.5t-9 -21.5t9 -21.5t21 -8.5h84q12 0 21 8.5t9 21.5t-9 21.5t-21 8.5v0zM533 556h-84q-12 0 -21 -8.5t-9 -21.5t9 -21.5t21 -8.5h84q12 0 21 8.5t9 21.5t-9 21.5t-21 8.5v0zM312 413h-84q-12 0 -21 -9
t-9 -21.5t9 -21.5t21 -9h84q12 0 21 9t9 21.5t-9 21.5t-21 9v0zM533 413h-84q-12 0 -21 -9t-9 -21.5t9 -21.5t21 -9h84q12 0 21 9t9 21.5t-9 21.5t-21 9v0zM312 269h-84q-12 0 -21 -9t-9 -21.5t9 -21.5t21 -9h84q12 0 21 9t9 21.5t-9 21.5t-21 9v0zM533 269h-84
q-12 0 -21 -9t-9 -21.5t9 -21.5t21 -9h84q12 0 21 9t9 21.5t-9 21.5t-21 9v0zM736 282h84q12 0 21 9t9 21.5t-9 21.5t-21 9h-84q-12 0 -21 -9t-9 -21.5t9 -21.5t21 -9v0zM820 169h-84q-12 0 -21 -9t-9 -21.5t9 -21.5t21 -9h84q12 0 21 9t9 21.5t-9 21.5t-21 9v0z" />
    <glyph glyph-name="laba" unicode="&#xe64b;" 
d="M347 574v-394v394zM780 166q-7 0 -12.5 5.5t-5.5 12.5q0 11 9 16q51 29 81 79t30 110t-30.5 111t-81.5 79q-10 6 -10 16q0 8 5 13t13 5q4 0 8 -2q61 -33 96.5 -92t35.5 -130q0 -69 -34.5 -127.5t-93.5 -92.5q-5 -3 -10 -3v0zM308 592h-88q-43 0 -73 -30.5t-31 -73.5v-224
q1 -43 31 -73.5t73 -30.5h87zM773 704v10q0 27 -17 47q-18 19 -45 19q-1 0 -3 -1q-10 0 -20 -2q-3 -1 -6 -3l-339 -182v-432l342 -167l3 -1q10 -3 21 -4q25 0 41.5 18t21.5 38v2.5v2.5z" />
    <glyph glyph-name="rmb" unicode="&#xe6da;" 
d="M449 136h-230q-5 15 -5 43q0 11 2 22q1 12 3 22h230v109h-230q-5 15 -5 43q0 10 2 22q1 11 3 21h180l-229 404q16 3 35 4t37 1t36 -1t34 -4l204 -376l201 376q16 3 32.5 4t34.5 1t35 -1t32 -4l-225 -404h189q4 -17 4 -40q0 -27 -4 -46h-239v-109h239q4 -18 4 -40
q0 -28 -4 -46h-239v-196q-15 -3 -31 -4t-33 -1t-32 1q-16 1 -31 4v196v-1z" />
    <glyph glyph-name="success" unicode="&#xe62a;" 
d="M351 1q-9 0 -15 6l-266 283q-6 6 -5.5 14.5t6.5 14.5t14 5.5t14 -6.5l251 -266l573 707q5 7 13.5 8t15 -4.5t7 -14t-4.5 -14.5l-588 -726q-5 -7 -14 -7h-1v0z" />
    <glyph glyph-name="leftarrow" unicode="&#xe62e;" 
d="M391 384l287 287q6 6 6 15t-6 15t-15 6t-15 -6l-302 -302q-6 -6 -6 -15t6 -15l302 -302q6 -6 15 -6t15 6t6 15t-6 15z" />
    <glyph glyph-name="team" unicode="&#xe605;" 
d="M515 32h-362q0 59 15 93t56 49q4 2 12 5q127 47 168 82q12 10 19.5 17.5t12 11.5t4 9t-0.5 6t-5 6t-5 6q-8 9 -13 26t-6 30l-1 13q-23 7 -32 31.5t-5.5 45.5t10.5 21q9 0 10 8t-5 42q-8 42 -3 68.5t25 51.5q12 16 38.5 25.5t46.5 11.5l21 3q9 -1 22.5 -3t42.5 -11.5
t41 -25.5q20 -25 24.5 -51.5t-2.5 -68.5q-6 -34 -5.5 -42t10.5 -8q6 0 9 -21t-5.5 -45.5t-30.5 -31.5q-3 -49 -20 -69l-5 -5t-4.5 -5.5t-1.5 -5t1 -6t6 -8t11 -11.5t17 -15q53 -44 180 -87q41 -13 56 -48t15 -94h-361zM904 69h118q0 43 -11.5 69t-42.5 36q-95 32 -133 64
q-10 8 -15 14t-8.5 9t-3 6.5t0.5 4t4 4.5l4 4q6 7 9.5 20t4.5 22l1 10q17 4 23.5 22t4 33.5t-7.5 15.5q-7 0 -7.5 5.5t4.5 31.5q6 31 2.5 51t-19.5 38q-5 7 -15.5 13t-21 9t-20 4.5t-15.5 2.5h-7q-6 0 -16.5 -1t-32 -8.5t-29.5 -19.5q-3 -3 -6.5 -9t-6.5 -9q23 -12 25 -36
q4 -40 -10 -77q-11 -22 -10 -39t20 -34q7 -6 8 -22.5t-1 -30.5l-2 -14q69 -37 143 -61q69 -23 69 -128zM126 69h-118q0 43 11.5 69t42.5 36q95 32 133 64q9 8 14.5 14t8.5 9t2.5 6.5t0 4t-3.5 4.5t-5 4q-5 7 -9 20t-5 22l-1 10q-16 4 -23 22t-4.5 33.5t8.5 15.5q7 0 7.5 5.5
t-5.5 31.5q-6 31 -2.5 51t19.5 38q9 12 30 19t32.5 8.5t16.5 1.5q7 0 17 -1t31.5 -8.5t30.5 -19.5l6 -9l6 -9q-22 -12 -24 -36q-5 -40 9 -77q11 -22 10 -39t-19 -34q-7 -6 -8.5 -22.5t1.5 -30.5l2 -14q-69 -37 -143 -61q-69 -23 -69 -128z" />
    <glyph glyph-name="miashu" unicode="&#xe64d;" 
d="M512 753q100 0 185 -49.5t134.5 -134.5t49.5 -185t-49.5 -185t-134.5 -134.5t-185 -49.5t-185 49.5t-134.5 134.5t-49.5 185t49.5 185t134.5 134.5t185 49.5zM512 806q-115 0 -212 -56.5t-153.5 -153.5t-56.5 -212t56.5 -212t153.5 -153.5t212 -56.5t212 56.5
t153.5 153.5t56.5 212t-56.5 212t-153.5 153.5t-212 56.5zM518 569q-65 0 -101 -38q-37 -36 -37 -100h61q0 39 16 60q17 25 57 25q32 0 50 -18q16 -18 16 -48q0 -21 -16 -42l-10 -11q-55 -49 -66 -72q-11 -22 -11 -56v-10h62v10q0 22 9 39t25 30q41 36 49 45q22 29 22 72
q0 52 -35 83q-34 31 -91 31zM508 226q-19 0 -31 -12q-12 -11 -12 -28v-2v0q0 -17 12.5 -29t29.5 -12h1q17 0 30 11q13 12 13 30v0v2q0 17 -13 28q-11 12 -30 12z" />
    <glyph glyph-name="enter" unicode="&#xe852;" 
d="M864 704q-14 0 -23 -9t-9 -23v-224q0 -67 -46.5 -113.5t-113.5 -46.5h-435l105 106q10 9 10 22t-9.5 22.5t-22.5 9.5t-22 -10l-160 -160q-7 -6 -7 -9q-5 -10 0 -26q2 -1 3.5 -4.5t3.5 -4.5l160 -160q9 -10 22 -10t22.5 9.5t9.5 22.5t-10 22l-105 106h435q94 0 159 65
t65 159v224q0 14 -9 23t-23 9z" />
    <glyph glyph-name="sidebar2" unicode="&#xe63e;" 
d="M890 145q-41 38 -113 68q-74 32 -158 50l-18 4l-89 -133l-88 132l-19 -3q-79 -13 -158 -47q-71 -30 -113 -68q-57 -52 -57 -116v-2q0 -40 12 -78l6 -18h832l7 19q13 36 13 77v2q0 62 -57 113v0zM886 -10h-749q-4 20 -4 41v1q0 39 38 74q35 32 97 58q59 25 129 40
l115 -172l114 172q70 -17 130 -43q135 -58 135 -129v-1q0 -21 -5 -42v1zM268 478v0v0h42q9 -86 66.5 -144t135.5 -58q72 0 128 50h-128q-63 0 -108 52.5t-45 126t45 125.5t108 52q57 0 100 -43.5t51 -108.5h51q-8 86 -66 144.5t-136 58.5t-136 -59t-66 -145h-52
q-9 67 26 126.5t96.5 93.5t131.5 34q92 0 162.5 -59.5t86.5 -143.5q5 -28 6 -59q-6 -44 -56 -69t-123 -25h-1q-40 0 -77 14l2 -56q36 -9 75 -9h1q80 0 139 27.5t78 74.5h1q11 36 11 76v0q0 116 -89.5 198t-215.5 82t-215.5 -82t-89.5 -198q0 -48 5 -76h56v0zM268 478z" />
    <glyph glyph-name="create" unicode="&#xe63f;" 
d="M273 430h199v206q0 17 12 28.5t28 11.5t28 -11.5t12 -28.5v-206h199q16 -1 27.5 -13t11.5 -28.5t-11.5 -28.5t-27.5 -12h-199v-219q0 -16 -12.5 -27t-27.5 -11t-27.5 11t-12.5 27v219h-199q-16 0 -27.5 12t-11.5 28.5t11.5 28.5t27.5 13v0zM512 -66q-91 0 -174.5 35.5
t-144 96t-96 144t-35.5 174.5t35.5 174.5t96 144t144 96t174.5 35.5t174.5 -35.5t144 -96t96 -144t35.5 -174.5t-35.5 -174.5t-96 -144t-144 -96t-174.5 -35.5zM512 781q-108 0 -199.5 -53t-144.5 -144.5t-53 -199.5t53 -199.5t144.5 -144.5t199.5 -53t199.5 53t144.5 144.5
t53 199.5t-53 199.5t-144.5 144.5t-199.5 53v0z" />
    <glyph glyph-name="sidebar0" unicode="&#xe640;" horiz-adv-x="1026" 
d="M411 578q0 -43 -30.5 -73.5t-73.5 -30.5t-73.5 30.5t-30.5 73.5t30.5 73.5t73.5 30.5t73.5 -30.5t30.5 -73.5v0zM341 578v0q0 14 -10 24.5t-24.5 10.5t-24.5 -10.5t-10 -24.5t10 -24.5t25 -10.5v0q14 0 24 10.5t10 24.5v0v0zM618 714l314 -320q32 -30 32 -76.5t-31 -76.5
l-285 -278q-30 -29 -77.5 -29t-77.5 29l-354 347q-48 46 -62.5 75.5t-14.5 87.5v153q0 58 7.5 94t29 63.5t61.5 39t105 11.5h143q31 0 58 -7.5t54.5 -27.5t45.5 -36t52 -49zM599 13l285 277q11 10 11 27t-12 28l-285 291l-29 28q-59 59 -90.5 80t-71.5 21h-143
q-32 0 -52.5 -2t-36.5 -8.5t-24 -14t-13 -25.5t-6 -37t-1 -52v-153q0 -42 8 -58.5t48 -55.5l354 -346q11 -11 29 -11t29 11v0z" />
    <glyph glyph-name="sidebar4" unicode="&#xe641;" horiz-adv-x="1037" 
d="M968 -25l-83 83q48 47 48 117q0 74 -52.5 125.5t-124.5 51.5q-70 0 -123 -53t-53 -123.5t53 -123.5t123 -53q41 0 88 23l83 -82q6 -6 23.5 -6t23.5 6q0 23 -6 35v0zM633 169q0 49 34.5 83.5t83 34.5t83 -34.5t34.5 -83t-34.5 -83t-83 -34.5t-83 34.5t-34.5 82.5v0z
M568 657.5q-9 8.5 -20.5 8.5t-20.5 -9l-112 -111l-112 111q-9 9 -20.5 9t-20.5 -8.5t-9 -20.5t9 -21l94 -94h-59q-13 0 -21 -8t-8 -21t8 -21.5t21 -8.5h89v-35h-83q-13 0 -21 -8t-8 -21.5t8 -21.5t21 -8h83v-64q0 -14 8 -22t21 -8t21 8t8 22v58h89q8 0 18.5 10.5t10.5 19.5
t-10.5 19t-18.5 10h-89v41h89q9 0 19 8.5t10 21t-10 21t-19 8.5h-59l94 94q9 9 9 21t-9 20.5zM591 10h-394q-31 0 -53.5 23t-22.5 54v612q0 31 22.5 53.5t53.5 22.5h612q31 0 53.5 -22.5t22.5 -53.5v-342q0 -13 8.5 -21t21.5 -8t21 8t8 22v341q0 57 -39 96t-96 39h-612
q-57 0 -96 -39t-39 -96v-612q0 -57 39 -96t96 -39h394q14 0 22 8t8 21t-8 21t-22 8v0z" />
    <glyph glyph-name="hot-control" unicode="&#xe644;" 
d="M90 806h195v-195h-195v195zM90 481h195v-194h-195v194zM90 157h195v-195h-195v195zM415 157h194v-195h-194v195zM415 481h194v-194h-194v194v0zM415 806h194v-195h-194v195v0zM739 157h195v-195h-195v195zM739 481h195v-194h-195v194v0zM739 806h195v-195h-195v195v0z
" />
    <glyph glyph-name="toparrow" unicode="&#xe645;" 
d="M457 809q21 24 53.5 24t54.5 -24l299 -299q20 -22 20 -51q0 -31 -22 -53t-53 -22q-30 0 -51 20l-173 173v-569q0 -31 -22 -52.5t-53 -21.5v0h-3q-29 0 -49 20t-20 49v2v570l-173 -167q-22 -22 -53 -22t-53 22t-22 53t22 53z" />
    <glyph glyph-name="sidebar3" unicode="&#xe647;" horiz-adv-x="1071" 
d="M759 806l89 -88l-284 -245l-205 192l-4 5l-1 -1v1l-5 -5l-259 -224v-85l1 -1l261 227l213 -198l15 16l314 272l79 -80v214h-214zM90 -38h103v363l-103 -96v-267v0zM586 -38h102v444l-102 -89v-355v0zM338 406v-444h102v450l-49 56zM833 491v-529h103v543l-50 39z" />
    <glyph glyph-name="finish" unicode="&#xe648;" 
d="M512 834q-186 0 -318 -132t-132 -318t132 -318t318 -132q92 0 175 35.5t143.5 96t96 143.5t35.5 174.5t-35.5 175t-96 144t-143.5 96t-175 35.5v0zM810 560l-374 -373q-4 -4 -10 -4t-11 4l-201 202q-5 4 -5 10q0 7 4.5 11t10.5 4t11 -4l191 -192l363 363q4 4 10 4
t10.5 -4.5t4.5 -10.5t-4 -10v0z" />
    <glyph glyph-name="application" unicode="&#xe649;" horiz-adv-x="1047" 
d="M781 134q0 -10 -7.5 -18t-18.5 -8t-18.5 8t-7.5 18v1h-1q-9 74 -65.5 125t-132.5 53h-3.5h-3.5h-3.5h-3.5q-76 -2 -132.5 -53t-65.5 -125h-1v-1q0 -10 -7.5 -17.5t-18.5 -7.5t-18.5 7.5t-7.5 17.5v3v0q0 5 2 9q9 67 50.5 119.5t103.5 78.5q-37 25 -58.5 63.5t-21.5 83.5
q0 74 53.5 126.5t128.5 52.5t128 -52.5t53 -126.5q0 -45 -21 -83.5t-58 -63.5q62 -26 104 -79.5t51 -120.5q1 -4 1 -8v-2v0zM652 491.5q0 52.5 -37.5 90t-91.5 37.5t-92 -37.5t-38 -90t38 -90t92 -37.5t91.5 37.5t37.5 90zM982 384q0 92 -36 175t-98 143.5t-147 96
t-178.5 35.5t-179 -35.5t-147 -96t-98 -143.5t-36.5 -175q0 -160 102 -282.5t258 -156.5q44 -11 100 -11t100 11q156 34 258 156.5t102 282.5zM766 77v0q-103 -79 -236 -82l9 1h-8h-1q-1 0 -3.5 -0.5t-4.5 -0.5q-5 0 -8 1h-1h-8v0q-133 5 -236 88l9 -7q-72 54 -113.5 134.5
t-41.5 172.5q0 106 53.5 195.5t145.5 141.5t200 52q106 0 196.5 -50t144.5 -136t58 -188v-15q0 -92 -41.5 -172.5t-113.5 -134.5z" />
    <glyph glyph-name="drop-down" unicode="&#xe64a;" horiz-adv-x="2222" 
d="M1618 617h-138l-353 -349l-395 352h-138l477 -419l58 -53z" />
    <glyph glyph-name="sidebar6" unicode="&#xe64c;" horiz-adv-x="1172" 
d="M1035 290q10 0 18 9t8 20t-8 18t-18 6h-374q-11 0 -18.5 -7.5t-7.5 -19.5q0 -11 7 -18.5t19 -7.5h374zM1035 450q11 0 18.5 8.5t7.5 20.5q0 10 -8 18t-18 6h-374q-11 0 -18.5 -7t-7.5 -19q0 -11 7 -19t19 -8h374zM1006 640q0 9 -7 16t-17 5h-374q-11 0 -18.5 -6.5
t-7.5 -17.5t7 -18.5t19 -7.5h374q11 0 17.5 8t6.5 21zM105 357q0 -3 -10 -10v-263q0 -12 7 -19.5t20 -7.5h84q10 -45 47 -75t84 -30q49 0 86 30t46 75h218q11 -45 47.5 -75t84.5 -30t85.5 30t46.5 75h84q11 0 18.5 7.5t7.5 19.5q0 11 -7 18.5t-19 7.5h-77q-11 46 -47.5 76
t-84.5 30t-85 -30.5t-46 -75.5h-219q-11 46 -47.5 76t-83.5 30q-49 0 -86 -30.5t-46 -75.5h-58v185h319q11 0 18.5 7t7.5 19v424h401q12 0 19 6.5t7 17.5t-7 19t-19 8h-427q-11 0 -18.5 -7.5t-7.5 -19.5v-108h-113q-12 0 -19 -7zM742 79q0 32 23.5 55.5t56.5 23.5
q32 0 55.5 -22.5t23.5 -56.5q0 -33 -23 -56t-56.5 -23t-56.5 23t-23 56zM263 79q0 33 22.5 56t56.5 23q33 0 56 -22.5t23 -56.5q0 -33 -22.5 -56t-56.5 -23t-56.5 23t-22.5 56zM448 611v-266h-288l189 266h99z" />
    <glyph glyph-name="star" unicode="&#xe64e;" 
d="M790 -65l-278 160l-277 -161l58 327l-230 230l315 41l134 302l132 -303l314 -42l-229 -229z" />
    <glyph glyph-name="sidebar1" unicode="&#xe64f;" horiz-adv-x="1107" 
d="M263 323h-1q-12 0 -21 9t-9 21t9 21t21 9h1h572q12 -1 20.5 -9.5t8.5 -20.5t-8.5 -21t-20.5 -9h-572zM292 150v0q-12 0 -21 9t-9 21.5t9 21t21 8.5v0h513v0q13 0 21.5 -8.5t8.5 -21t-8.5 -21.5t-21.5 -9v0h-513zM512 650q-12 0 -20.5 9t-8.5 21t8.5 20.5t20.5 9.5h77h1
q12 0 20.5 -9t8.5 -21.5t-8.5 -21t-20.5 -8.5h-1h-77zM252 -23q-40 0 -88 37q-53 40 -54 89v0l-48 476v3q0 53 41.5 90.5t100.5 37.5h47h1q12 0 20.5 -9t8.5 -21t-8.5 -21t-20.5 -9h-1h-47q-33 0 -57 -19t-25 -47v-1l4 -42h197v13q5 139 71 232q65 91 155 91t154 -91
q66 -93 71 -232l1 -13h197l4 42v1q-1 28 -25 47t-58 19h-46q-12 0 -20.5 9t-8.5 21t8.5 20.5t20.5 9.5h46q59 0 100.5 -37.5t41.5 -90.5v-3l-48 -476v0q-1 -52 -41 -86q-48 -40 -133 -40h-561zM170 108v-3q0 -22 33 -46q29 -21 49 -23h561q49 0 80 17q35 19 35 52v0v3
l38 373h-834zM548.5 817q-64.5 0 -112.5 -75.5t-53 -185.5l-1 -15h333l-1 15q-5 110 -53 185.5t-112.5 75.5z" />
    <glyph glyph-name="sidebar5" unicode="&#xe650;" 
d="M647 500h-20v54q0 10 -8.5 18.5t-18.5 8.5h-14q-10 0 -18.5 -8.5t-8.5 -18.5v-54h-100v54q0 10 -8.5 18.5t-18.5 8.5h-7q-10 0 -18.5 -8.5t-8.5 -18.5v-54h-27q-10 0 -18.5 -8.5t-8.5 -18.5v-13q0 -10 8.5 -18.5t18.5 -8.5h108v-67h-108q-10 0 -18.5 -8.5t-8.5 -18.5v-14
q0 -10 8.5 -18.5t18.5 -8.5h108v-114q0 -10 8.5 -18.5t18.5 -8.5h13q10 0 18.5 8.5t8.5 18.5v121h101q10 0 18.5 8.5t8.5 18.5v13q0 11 -8.5 19t-18.5 8h-101v68h101q10 0 18.5 8t8.5 18v7q0 10 -8.5 18.5t-18.5 8.5zM512 834q-91 0 -174 -36t-143.5 -96.5t-96.5 -143.5
t-36 -174q0 -121 59.5 -224.5t163 -164.5t227.5 -61q189 0 319.5 130.5t130.5 319.5q0 124 -61 227.5t-164.5 163t-224.5 59.5v0zM512 -6q-106 0 -196 52t-142 142t-52 196t52 196t142 142t196 52t196 -52t142 -142t52 -196v-1q0 -106 -52 -195.5t-141.5 -141.5t-195.5 -52
h-1v0zM512 -6z" />
    <glyph glyph-name="file" unicode="&#xe651;" 
d="M898 95h-276l-89 -75v75h-64q-18 0 -30.5 12.5t-12.5 30.5v332q0 17 12.5 30t30.5 13h429v0q17 0 30 -13t13 -30v-332q0 -18 -13 -30.5t-30 -12.5v0zM898 448q0 9 -6.5 15.5t-15.5 6.5h-385q-9 0 -15.5 -6.5t-6.5 -15.5v-289q0 -9 6.5 -15t15.5 -6h75v-43l42 43h268v0
q9 0 15.5 6t6.5 15v0v289v0zM703 301q-1 -11 -6 -18t-13.5 -7t-13.5 7t-6 18q-13 48 -13 75q0 16 9.5 28t23 12t23 -12t9.5 -28v-1q0 -1 -1 -3l-12 -71v0zM683 251v0q-11 -11 -16.5 -17t-6.5 -6.5l-1 -0.5q0 10 7 17t17 7v0zM383 100v0q0 -5 -5 -5h-193q-5 0 -5 5v0v11v0
q0 5 5 5h193q5 0 5 -5v0v-11zM383 197v0q0 -6 -5 -6h-193q-5 0 -5 5v11v0q0 6 5 6h193q5 0 5 -6v0v-11v1zM383 293v0q0 -5 -5 -5h-193q-5 0 -5 5v11v0q0 5 5 5h193q5 0 5 -5v0v-11v0zM383 389q0 -5 -5 -5h-193q-5 0 -5 5v11q0 5 5 5h193q5 0 5 -5v0v-11v0zM200 555v0
q-8 0 -14 6t-6 15v120q0 8 6 14t14 6v0h142v0q8 0 14 -6t6 -14v-120q0 -9 -6 -15t-14 -6v0h-142zM330 684h-118v-96h118v96zM383 497v-11v0q0 -6 -5 -6h-193q-5 0 -5 6v0v11q0 5 5 5h193q5 0 5 -6v0v1zM436 673q-10 0 -10 11t10 11h98q10 0 10 -11t-10 -11h-98zM705 588v0
q0 -5 -3 -8t-8 -3v0h-257q-4 0 -7.5 3t-3.5 7.5t3.5 7.5t7.5 3h257v0q5 0 8 -3t3 -7v0v0zM769 630h-96q-29 0 -47 18t-18 47v96h-460q-10 0 -16 -6t-6 -15v-772q0 -9 6 -15t16 -6h600q9 0 15 6t6 15v54h43v-49q0 -29 -18 -49t-46 -20h-600q-29 0 -47 18t-18 46v772
q0 28 18 46t47 18h482q21 0 32 -11l137 -139q13 -14 13 -33v0v-96h-43v75v0zM630 788v-93v-5t2 -10.5t6 -13t13 -10t22 -4.5h96l-139 136v0z" />
    <glyph glyph-name="uncollected" unicode="&#xe652;" 
d="M236 -66l59 328l-233 226l314 40l135 304l136 -303l313 -41l-230 -227l62 -327l-279 163zM152 461l186 -184l-47 -263l223 130l223 -129l-49 263l185 182l-254 33l-108 241l-107 -241z" />
    <glyph glyph-name="edit" unicode="&#xe653;" horiz-adv-x="1034" 
d="M135 47q-9 0 -14.5 5.5t-5.5 14.5q0 3 1 6l82 256q2 6 7 10l441 442q47 53 117 53q64 0 109.5 -45.5t45.5 -109.5q0 -70 -53 -116l-443 -444q-5 -5 -12 -6l-271 -65q-3 -1 -7 -2zM235 312l-70 -217l232 56l440 439q29 33 29 77q0 47 -33.5 80.5t-80.5 33.5q-44 0 -77 -29
zM408 133zM791 517q-9 0 -14 6l-180 180q-5 6 -5 14t5.5 14t14.5 6q8 0 14 -5l179 -180q6 -6 6 -14.5t-6 -14t-14 -5.5v-1zM943 -66h-861q-8 0 -14 6t-6 14.5t6 14t14 5.5h861q8 0 14 -5.5t6 -14t-6 -14.5t-14 -6z" />
    <glyph glyph-name="react-native" unicode="&#xe642;" 
d="M958.5 392.5q-0.5 45.5 -52.5 83t-142 60.5q8 33 12 60q22 143 -44 180q-39 22 -96.5 -4t-121.5 -92q-23 23 -42 39q-111 93 -177 55t-43 -180q5 -28 14 -62q-35 -9 -60 -19q-65 -25 -100 -58t-34.5 -69.5t35.5 -69t101 -56.5q25 -9 59 -18q-8 -32 -13 -60
q-22 -143 45 -180q17 -10 39 -10q59 0 137 66q19 16 42 39q23 -23 42 -39q77 -64 136 -64q23 0 41 10q39 23 46 88t-17 154q90 24 142 62.5t51.5 84zM718 751q23 -13 31 -52.5t-1 -97.5q-4 -26 -13 -59q-57 13 -122 18q-39 56 -80 100q95 97 159 97q15 0 26 -6zM642 318
q-110 -194 -280 -330q187 228 173 251q-3 5 -18 5q-43 -1 -84 2q-22 33 -44 71q-21 36 -38 71q18 38 37 72q20 36 43 71q41 3 83 3h10q37 0 73 -2q23 -33 45 -71q104 -178 136 -388q-97 258 -123 258q-5 0 -13 -13zM695 356q20 -47 34 -90q-45 -10 -93 -15q17 28 31 53
q14 24 28 52zM517 139q-33 36 -63 77q29 -1 53 -1h10q31 0 61 2q-112 -158 -277 -252zM397 249q-48 5 -94 15q14 45 33 90q16 -30 28 -52q14 -24 33 -53zM336 422q-20 45 -34 89q45 11 93 16q-17 -27 -32 -53q-13 -23 -27 -52zM514 639q33 -36 62 -77q-24 1 -51 1h-12
q-29 0 -61 -2q30 43 62 78zM667 476q-15 25 -33 53q50 -5 94 -14q-14 -44 -34 -91q-99 193 -255 336zM281 598q-10 59 -2.5 98t30.5 53q12 6 27 6q48 0 117 -58q20 -16 41 -37q-41 -46 -79 -102q-64 -6 -121 -19q-9 33 -13 59zM218 287q-56 20 -86.5 46t-30.5 53t30 53
t85 47q27 10 58 19q18 -58 46 -117q-28 -60 -45 -118q-32 8 -57 17zM456 80q-45 -38 -82.5 -52t-61 -1t-31 52.5t1.5 97.5q4 27 12 59q59 -13 122 -18q39 -55 80 -100q-22 -23 -41 -38zM721 29q-23 -13 -60.5 0.5t-83.5 51.5q-18 15 -41 38q41 45 79 101q65 6 122 19
q22 -82 17.5 -137.5t-33.5 -72.5v0zM757 273q-18 58 -46 117q27 61 45 118q81 -20 127.5 -51.5t46.5 -64.5t-46 -65t-127 -54zM441 389v0q0 -31 22 -52.5t52.5 -21.5t52.5 21.5t22 52.5v0v0q0 31 -22 52.5t-52.5 21.5t-52.5 -21.5t-22 -52.5v0z" />
    <glyph glyph-name="access" unicode="&#xe655;" horiz-adv-x="1536" 
d="M767.5 710q-76.5 0 -153.5 -26t-135.5 -65.5t-105 -84.5t-71 -85t-24.5 -65q0 -33 24.5 -75.5t71 -86t105 -80.5t135 -60.5t153.5 -23.5t154 26t135 65.5t104.5 84.5t71 85t24.5 65t-24.5 65t-71 85t-104.5 84.5t-135 65.5t-153.5 26zM767 112q-68 0 -136.5 23t-120 57.5
t-93 72.5t-63 70t-21.5 49t21.5 49t63 70t93 72.5t120 57.5t136.5 23t136.5 -23t120.5 -57.5t93 -72.5t63 -70t22 -49t-22 -49t-63 -70t-93 -72.5t-120.5 -57.5t-136.5 -23zM767 207q-73 0 -124.5 52t-51.5 125t51.5 125t124.5 52t125 -52t52 -125v0q0 -73 -52 -125
t-124 -52h-1v0zM767 506q-50 0 -86 -35.5t-36 -86.5t36 -86.5t86.5 -35.5t86 35.5t35.5 86.5v0q0 51 -35.5 86.5t-85.5 35.5h-1v0z" />
    <glyph glyph-name="pay" unicode="&#xe656;" 
d="M748 734q-7 4 -16 4q-12 0 -21 -8.5t-9 -20.5q0 -15 13 -24q74 -50 117 -129.5t43 -171.5v0q0 -98 -48.5 -182t-132.5 -132.5t-182 -48.5t-182 48.5t-132.5 132.5t-48.5 182v0q0 92 43 171t116 129q15 10 15 26q0 12 -9 20.5t-21 8.5q-9 0 -17 -5q-86 -59 -136 -151
t-50 -199v0q0 -114 56.5 -211.5t154 -154t211.5 -56.5t211.5 56.5t154 154t56.5 211.5v0q0 107 -50 199t-135 150zM407 806v0q-12 0 -20.5 -8.5t-8.5 -21.5v0v-28v0q0 -13 8.5 -21.5t20.5 -8.5t20.5 9t8.5 21v0v28q0 13 -8.5 21.5t-20.5 8.5v0zM617 806v0q-12 0 -20.5 -8.5
t-8.5 -21.5v0v-28v0q0 -13 8.5 -21.5t20.5 -8.5t20.5 9t8.5 21v0v28q0 13 -8.5 21.5t-20.5 8.5zM431 652q10 -16 31.5 -31t49 -15t49.5 14.5t32 31.5q5 7 5 16q0 12 -8.5 21t-20.5 9q-16 0 -25 -14q-1 -2 -4 -5.5t-11.5 -8.5t-16.5 -5q-20 0 -32 19q-8 13 -24 13
q-12 0 -20.5 -9t-8.5 -21q0 -8 4 -15v0zM365 310q-12 0 -21 -8.5t-9 -21t9 -21t21 -8.5h118v-93v0q0 -12 8.5 -20.5t20.5 -8.5t20.5 8.5t8.5 20.5v0v93h118v0q12 0 21 8.5t9 21t-9 21t-21 8.5v0h-118v78h118v0q12 0 21 9t9 21t-9 20.5t-21 8.5v0h-76l64 64q10 9 10 22
q0 12 -9 20.5t-21 8.5q-13 0 -21 -9l-94 -94l-94 94q-8 9 -21 9q-12 0 -20.5 -8.5t-8.5 -20.5q0 -13 9 -22l64 -64h-76q-12 0 -21 -8.5t-9 -21t9 -21t21 -8.5h118v-78h-118z" />
    <glyph glyph-name="general" unicode="&#xe657;" 
d="M211 765h166v0q26 0 44 -18t18 -44v-185q0 -26 -18 -44t-44 -18v0h-166v0q-26 0 -44 18t-18 44v185q0 26 18.5 44t43.5 18v0v0zM108 518q0 -43 30 -73t73 -30h166q43 0 73.5 30t30.5 73v185q0 43 -30.5 73t-73.5 30h-166q-43 0 -73 -30t-30 -73v-185zM647 765h166v0
q26 0 44 -18t18 -44v-185q0 -26 -18.5 -44t-43.5 -18v0h-166v0q-26 0 -44 18t-18 44v185q0 26 18 44t44 18v0v0zM543 518q0 -43 30.5 -73t73.5 -30h166q43 0 73 30t30 73v185q0 43 -30 73t-73 30h-166q-43 0 -73.5 -30t-30.5 -73v-185v0zM211 312h166h1q25 0 43 -18t18 -44
v0v-185q0 -25 -18 -43.5t-44 -18.5v0h-166v0q-26 0 -44 18.5t-18 43.5v0v185q0 26 18 44t44 18v0v0zM108 65q0 -43 30 -73t73 -30h166q43 0 73.5 30.5t30.5 72.5v185q0 43 -30.5 73t-73.5 30h-166q-43 0 -73 -30t-30 -73v-185zM811 3h-164h-1q-25 0 -43 18.5t-18 43.5v0v185
q0 26 18 44t44 18v0h166v0q26 0 44 -18t18 -44v-185q0 -9 6 -15t14.5 -6t14.5 6t6 15v185q0 43 -30 73t-73 30h-166q-43 0 -73.5 -30t-30.5 -73v-185q0 -42 30.5 -72.5t72.5 -30.5h1h165v0q9 0 15 6t6 14.5t-6 14.5t-14 6h-2z" />
    <glyph glyph-name="chart" unicode="&#xe658;" horiz-adv-x="1270" 
d="M652 413l72 -72q25 33 64 47l-108 64q-18 -37 -52 -58zM936 566l-77 -172q24 -5 45 -16l74 166q-36 12 -61 40zM835 161q39 0 66.5 27.5t27.5 66t-27.5 66.5t-66.5 28t-66.5 -27.5t-27.5 -66.5v0q0 -39 27.5 -66.5t66.5 -27.5zM834.5 302q19.5 0 33.5 -14t14 -33v0
q0 -20 -14 -33.5t-33.5 -13.5t-33 13.5t-13.5 33.5v0v0q0 19 13.5 33t33 14zM1022 584q39 0 67 27.5t28 66.5t-27.5 66.5t-66.5 27.5t-66.5 -27.5t-28.5 -66.5v0q0 -39 27.5 -66.5t66.5 -27.5zM1022 725v0q20 0 33.5 -14t13.5 -33.5t-13.5 -33t-33 -13.5t-33.5 13.5
t-14 33.5v0v0q0 19 14 33t33 14zM434 437l-99 -118q32 -26 46 -65l85 148q-33 26 -46 65zM342 208q0 39 -27.5 66.5t-66.5 27.5t-66.5 -27.5t-27.5 -66.5t27.5 -66.5t66.5 -27.5t66.5 27.5t27.5 66.5v0zM201 208q0 19 13.5 33t33 13.5t33.5 -14t14 -33t-14 -33t-33 -13.5v0
q-20 0 -33.5 13.5t-13.5 33.5v0v0zM1046 90q0 -19 -14 -33t-33 -14h-657q-16 0 -28 9t-17 23q-24 -8 -49 -8v0q0 -30 20.5 -50.5t49.5 -20.5h704q30 0 50.5 20.5t20.5 50.5v489q-28 -17 -62 -19l15 -447v0zM295 654v0q0 20 13.5 33.5t33.5 13.5h541q6 34 26 61l-591 -14
q-29 0 -49.5 -20.5t-20.5 -49.5v-329v0q25 0 48 -9l-1 314v0zM553 419q39 0 66.5 27.5t27.5 66.5t-27.5 66.5t-66.5 27.5t-66.5 -27.5t-27.5 -66.5v0q0 -39 27.5 -66.5t66.5 -27.5v0zM553 560v0q19 0 33 -13.5t14 -33t-14 -33.5t-33 -14t-33 14t-14 33v0q0 20 13.5 33.5
t33.5 13.5v0z" />
    <glyph glyph-name="consumption" unicode="&#xe659;" 
d="M774 785h-199q-5 21 -23 35t-40.5 14t-40 -13.5t-22.5 -35.5h-199q-34 0 -58 -24t-24 -58v-687q0 -34 24 -58t58 -24h524q34 0 58 24t24 58v687q0 34 -24 58t-58 24zM512 801q14 0 23.5 -9.5t9.5 -23t-10 -23t-23.5 -9.5t-23 9.5t-9.5 23t9.5 23t23.5 9.5zM823 16
q0 -20 -14.5 -34.5t-34.5 -14.5h-524q-20 0 -34.5 14.5t-14.5 34.5v687q0 20 14.5 34.5t34.5 14.5h199q4 -14 13 -25l-81 9q-7 0 -11.5 -5t-4.5 -11.5t4.5 -11.5t11.5 -5h262q7 0 11.5 5t4.5 11.5t-4.5 11.5t-11.5 5h-75q8 12 9 27l197 -11q20 0 34.5 -14.5t14.5 -34.5v-687
v0zM643 654q7 0 11.5 5t4.5 11.5t-4.5 11.5t-11.5 5h-262v0q-7 0 -11.5 -5t-4.5 -11.5t4.5 -11.5t11.5 -5v0h262zM752 539h-355q-6 0 -11 -4.5t-5 -11.5t5 -11.5t11 -4.5h355v0q7 0 11.5 4.5t4.5 11.5t-4.5 11.5t-11.5 4.5v0zM302 556h-6q-12 0 -20.5 -8.5t-8.5 -21.5v-6
q0 -12 8.5 -21t20.5 -9h6q13 0 21.5 9t8.5 21v6q0 13 -8.5 21.5t-21.5 8.5v0zM302 425h-6q-12 0 -20.5 -8.5t-8.5 -21.5v-6q0 -12 8.5 -20.5t20.5 -8.5h6q13 0 21.5 8.5t8.5 20.5v6q0 13 -8.5 21.5t-21.5 8.5v0zM302 294h-6q-12 0 -20.5 -8.5t-8.5 -21.5v-6v0
q0 -12 8.5 -20.5t20.5 -8.5h6q13 0 21.5 8.5t8.5 20.5v0v6q0 13 -8.5 21.5t-21.5 8.5v0zM302 163h-6q-12 0 -20.5 -8.5t-8.5 -20.5v-7q0 -12 8.5 -20.5t20.5 -8.5h6q13 0 21.5 8.5t8.5 20.5v7q0 12 -8.5 20.5t-21.5 8.5zM752 409h-355q-6 0 -11 -5t-5 -12t5 -11.5t11 -4.5
h355v0q7 0 11.5 4.5t4.5 11.5t-4.5 12t-11.5 5v0zM752 278h-355v0q-6 0 -11 -5t-5 -12t5 -11.5t11 -4.5v0h355q7 0 11.5 5t4.5 11.5t-4.5 11.5t-11.5 5v0zM752 147h-355q-6 0 -11 -5t-5 -11.5t5 -11.5t11 -5h355q7 0 11.5 5t4.5 11.5t-4.5 11.5t-11.5 5v0z" />
    <glyph glyph-name="shoppingcar" unicode="&#xe65a;" horiz-adv-x="1030" 
d="M282 579l109 -311h463h1q10 0 17.5 -7.5t7.5 -18.5t-7.5 -18t-17.5 -7h-1h-481v0q-18 0 -24 16l-173 495h-34q-11 0 -18.5 7.5t-7.5 18.5t7.5 18.5t18.5 7.5h52v0q18 0 24 -17l46 -133h623q10 0 17.5 -7.5t7.5 -17.5v-5l-41 -199q-4 -19 -22 -21l-378 -42h-4
q-10 0 -17.5 7.5t-7.5 17.5t6.5 17.5t16.5 8.5l360 41q18 85 31 149q1 1 -69 1h-181h-183.5t-140.5 -1v0zM431 112q15 0 26 -11t11 -26.5t-11 -26.5t-26 -11t-26 11t-11 26.5t11 26.5t26 11zM431 160q-36 0 -61 -25t-25 -60.5t25 -60.5t61 -25t61 25t25 60.5t-25 60.5
t-61 25v0zM789.5 112q15.5 0 26 -11t10.5 -26.5t-10.5 -26.5t-26 -11t-26.5 11t-11 26.5t11 26.5t26.5 11zM789.5 160q-35.5 0 -61 -25t-25.5 -60.5t25.5 -60.5t61 -25t60.5 25t25 60.5t-25 60.5t-60.5 25z" />
    <glyph glyph-name="vip" unicode="&#xe65b;" horiz-adv-x="1057" 
d="M471 716q-11 0 -22 -2q-63 -10 -104 -59t-41 -114q-1 -1 -1 -2q0 -37 16 -70q11 -24 32 -14q19 9 9 36q-16 38 -8 80.5t39 67.5q17 13 42.5 24.5t44.5 12.5q13 0 18.5 5.5t5.5 16.5q-1 18 -31 18zM826 201q4 0 8 2q9 5 9 15q0 5 -2 9q-63 112 -179 162q68 10 95 47.5
t27 94.5v1q0 116 -82.5 198.5t-199 82.5t-199 -82.5t-82.5 -198.5v-1q0 -105 70 -184q-75 -52 -118 -133t-43 -175q0 -35 7 -70q0 -4 5 -7.5t11 -3.5q1 0 3 1q14 2 14 17v3v0q-6 28 -6 60v0v0q0 86 40 160t108 121l3 2q82 -74 193 -71.5t191 79.5q99 -65 137 -176
q-19 47 -11 47h1v0zM502 285q-102 0 -174.5 72.5t-72.5 174.5t72.5 174.5t174.5 72.5t174.5 -72.5t72.5 -174.5t-72.5 -174.5t-174.5 -72.5zM908 77h-49v46q0 7 -5 12t-12 5t-12 -5t-5 -12v-46h-49v0q-7 0 -12 -5t-5 -12.5t5 -12.5t12 -5h49v-51q0 -7 5 -12t12 -5t12 5t5 12
v51h49q7 0 12 5t5 12t-5 12t-12 6v0z" />
    <glyph glyph-name="radio1" unicode="&#xe617;" 
d="M511 -63q-91 0 -174 35q-80 34 -141.5 95.5t-95.5 142.5q-35 83 -35 173.5t35 173.5q34 81 95.5 142.5t141.5 95.5q83 35 174 35t174 -35q80 -34 142 -95.5t96 -142.5q35 -83 35 -173.5t-35 -173.5q-34 -81 -96 -142.5t-142 -95.5q-83 -35 -174 -35zM511.5 789
q-82.5 0 -158.5 -32q-72 -30 -128.5 -86.5t-87.5 -129.5q-32 -75 -32 -157.5t32 -157.5q31 -73 87.5 -129.5t128.5 -86.5q76 -32 158.5 -32t157.5 32q73 30 129 86.5t87 129.5q32 75 32 157.5t-32 157.5q-31 73 -87 129.5t-129 86.5q-75 32 -157.5 32z" />
    <glyph glyph-name="goods" unicode="&#xe65c;" horiz-adv-x="1026" 
d="M799 755h-167v0q-8 -1 -13 -7t-5 -14t5 -13.5t13 -6.5v0h167q17 0 29 -12t12 -29v-576q0 -17 -12 -29t-29 -12h-576q-17 0 -29 12t-12 29v0v576q0 17 12 29t29 12h147v0q7 1 12.5 6.5t5.5 13.5t-5.5 14t-12.5 7v0v0h-147q-34 0 -58 -24t-24 -58v-576q0 -34 24 -58t58 -24
h576q34 0 58 24t24 58v576q0 34 -24 58t-58 24zM511 385q-67 0 -118.5 43t-63.5 108q18 13 18 34q0 17 -12 29t-29 12t-29.5 -12t-12.5 -29q0 -26 24 -37q13 -81 76.5 -135t146.5 -54t146 54t77 135q23 11 23 37q0 17 -12 29t-29 12t-29 -12t-12 -29q0 -21 18 -34
q-12 -65 -63.5 -108t-118.5 -43z" />
    <glyph glyph-name="text" unicode="&#xe65d;" 
d="M735 306zM307 261h428v45h-428l1 -37q0 -3 -2 -6q-2 -2 1 -2zM735 261zM307 306zM532 374zM735 374zM308 195zM737 147l-2 1q0 -3 2 -1zM735 194l-427 1v-47h427l2 -1l3 -3v51q0 2 -2 -1t-3 0zM308 146v-2l1 -1q0 2 -1 3zM308 146v2h-1q1 1 1 -2zM532 554zM532 509v0v0z
M735 599v0v0zM735 554v0v0zM735 509v0v0zM532 554h203v45h-203v-45zM735 419v0v0zM532 599zM735 464zM532 464h203v45h-203v-22q0 -2 1 -8t1 -10.5t-2 -4.5zM735 419h-203q2 0 2 -4.5t-1 -10.5t-1 -8v-22h203v45zM385 560q25 0 43 -18t18 -43.5t-18 -43.5t-43 -18t-43 18
t-18 44v0q0 25 18 43t43 18zM385 396q42 0 72 30t30 72.5t-30 72.5t-72 30t-72 -30t-30 -72.5t30 -72.5t72 -30zM848 58q0 -22 -23 -22h-631q-22 0 -22 22v654q0 22 22 22h105.5h204h230h91.5q23 2 23 -22v-654zM811 780h-602q-34 -1 -58 -25t-24 -58v-624q0 -34 24 -58
t58 -24h602q34 0 58 24t24 58v624q0 34 -24 58t-58 25z" />
    <glyph glyph-name="update" unicode="&#xe65f;" horiz-adv-x="1317" 
d="M968 470v2q-10 110 -91.5 185t-192.5 75q-109 0 -190 -72.5t-93 -179.5l-4 -2q-76 -18 -125 -78.5t-49 -139.5q0 -13 2 -26q12 -84 76.5 -141t150.5 -57h4h67q22 0 35 10.5t13 27.5q0 15 -11 26t-27 11v0h-79h-4q-54 0 -95.5 33t-53.5 84q-3 16 -3 31q0 53 32.5 93.5
t83.5 52.5l36 8q17 4 19 21l2 30q7 63 46 112.5t98 69.5q30 11 67 11q83 0 143.5 -55.5t67.5 -136.5l3 -33q2 -16 17 -22l30 -10q44 -16 72 -54.5t28 -86.5q0 -5 -1 -11q-5 -65 -48 -101t-126 -36h-99q-20 0 -35 14.5t-15 34.5v0v196l87 -86l52 53l-175 175l-175 -175
l52 -53l85 85v-219q0 -41 29 -70.5t70 -29.5h124q115 0 178 57t70 150q1 8 1 16q0 72 -41 129.5t-107 81.5h-1z" />
    <glyph glyph-name="readMore" unicode="&#xe660;" 
d="M512 733q94 0 174.5 -46.5t127 -126.5t46.5 -174.5t-46.5 -175t-127 -127t-175 -46.5t-174.5 46.5t-126.5 127t-46.5 174.5q0 106 58 192.5t152 127.5q65 28 137 28h1v0zM512 779q-107 0 -198.5 -52.5t-144 -144t-52.5 -198.5t52.5 -198.5t144 -144.5t199 -53t198.5 53
t144 144.5t53 198.5t-53 198.5t-144.5 144.5t-198.5 53v-1zM422 597l-33 -33l180 -180l-180 -180l33 -33l213 213z" />
    <glyph glyph-name="puzzle" unicode="&#xe661;" horiz-adv-x="1038" 
d="M803 162q-20 0 -56 18q-123 65 -266 85l232 -70v0q-9 0 -15 -6.5t-6 -15.5v-159q0 -5 -1 -7t-4.5 -4t-10.5 -2h-511q-26 0 -26 13v121q32 -14 68 -14q62 0 107 44t45 105t-44 104.5t-107 43.5q-37 0 -71 -15l2 122q0 9 9 19t17 10h160q9 0 15.5 6t6.5 15t-6 15
q-27 28 -27 67v1q0 43 31 73t75.5 30t75.5 -30.5t31 -74.5q0 -38 -27 -66q-6 -6 -6 -15t6.5 -15t14.5 -6h161q6 0 11 -9.5t5 -19.5v-162q0 -9 6 -15t15 -6q5 0 9 2q9 4 25 13q36 18 56 18q44 0 75 -31.5t31 -75.5t-31 -75t-75 -31v0zM803 417q-30 0 -69 -20v128q0 28 -16 50
t-42 22h-120q13 27 13 59v1q0 60 -43.5 103t-105.5 43t-105.5 -42t-43.5 -104v0q0 -33 14 -61l-120 1q-26 0 -47.5 -22.5t-21.5 -49.5v-160q0 -9 6.5 -15.5t15.5 -6.5q8 0 14 6q29 27 76 27q44 0 76.5 -31.5t32.5 -75t-33 -75t-77 -31.5q-47 0 -75 27q-6 6 -14 6
q-9 0 -16 -7q-6 -6 -6 -14v0v-161q0 -24 19.5 -39.5t49.5 -15.5h511q27 0 42.5 14.5t15.5 40.5v125q39 -20 69 -20q62 0 105.5 44t43.5 105.5t-43.5 105t-105.5 43.5v0v0z" />
    <glyph glyph-name="save" unicode="&#xe662;" 
d="M776 714v0q27 0 46.5 -19.5t19.5 -46.5v0v-528q0 -27 -19.5 -46.5t-46.5 -19.5v0h-528v0q-27 0 -46.5 19.5t-19.5 46.5v0v528q0 27 19.5 46.5t46.5 19.5v0h528zM776 780h-528q-54 0 -93 -39t-39 -93v-528q0 -54 39 -93t93 -39h528q54 0 93 39t39 93v528q0 54 -39 93
t-93 39zM710 714v-253h-374v253h374zM776 780h-506v-385h506v385zM666 670h-66v-176h66v176z" />
    <glyph glyph-name="component" unicode="&#xe666;" 
d="M865 790h-710q-23 0 -39 -16.5t-16 -38.5v-705q0 -23 16 -39t39 -16h710q22 0 38.5 16t16.5 39v705q0 22 -16.5 38.5t-38.5 16.5zM155 750h710q6 0 10.5 -4.5t4.5 -10.5v-170h-740v170q0 6 4.5 10.5t10.5 4.5zM865 15h-710q-6 0 -10.5 4.5t-4.5 10.5v495h740v-495
q0 -6 -4.5 -10.5t-10.5 -4.5zM185 268h179v179h-179v-179zM205 427h139v-139h-139v139zM418 268h179v179h-179v-179zM438 427h139v-139h-139v139zM651 268h178v179h-178v-179zM670 427h139v-139h-139v139zM185 57h179v178h-179v-178zM205 215h139v-139h-139v139zM418 57h179
v178h-179v-178zM438 215h139v-139h-139v139zM651 57h178v178h-178v-178zM670 215h139v-139h-139v139z" />
    <glyph glyph-name="hardware" unicode="&#xe667;" 
d="M955 341v3q0 4 -1 7l-160 435q-5 14 -20 14h-525v0q-15 0 -20 -13l-160 -436q-1 -3 -1 -7v-3v-6v-230q0 -25 17 -42t41 -17h100v-18q0 -16 11 -27t26 -11h49q16 0 27 11t11 27v18h348v-18q0 -16 11 -27t27 -11h49q15 0 26 11t11 27v18h75q24 0 41 17t17 42v231v5v0z
M264 758h495l134 -364h-763zM913 105q0 -7 -5 -11.5t-11 -4.5h-771q-6 0 -11 4.5t-5 11.5v231q0 6 5 11t11 5h771q6 0 11 -5t5 -11v-231zM164 296h54v-55h-54v55zM261 296h54v-55h-54v55zM357 296h54v-55h-54v55zM454 296h54v-55h-54v55zM164 199h54v-54h-54v54zM261 199h54
v-54h-54v54zM357 199h54v-54h-54v54zM454 199h54v-54h-54v54zM652 147h194v145h-194v-145zM695 249h108v-60h-108v60z" />
    <glyph glyph-name="api" unicode="&#xe668;" 
d="M863 779h-711q-22 0 -38 -15.5t-16 -38.5v-696q0 -22 16 -38t38 -16h711q22 0 38 16t16 38v696q0 23 -16 38.5t-38 15.5zM152 740h711q6 0 10.5 -4.5t4.5 -10.5v-166h-741v166q0 6 4.5 10.5t10.5 4.5zM863 15h-711q-6 0 -10.5 4t-4.5 10v490h741v-490q0 -6 -4.5 -10
t-10.5 -4zM315 428q-5 15 -21 13q-17 2 -22 -13l-68 -212v-1l-32 -96q-2 -8 1.5 -15.5t11.5 -9.5q3 -1 6 -1q14 0 19 13l27 84h113l27 -84q5 -13 19 -13q3 0 6 1q8 2 11.5 9.5t1.5 15.5zM250 230l44 136l44 -136h-88zM556 420h-56q-2 0 -3 -1q-2 1 -4 1q-8 0 -13.5 -6
t-5.5 -14v-288q0 -8 5.5 -13.5t13.5 -5.5t14 5.5t6 13.5v101h43q42 0 72.5 30t30.5 73t-30.5 73.5t-72.5 30.5zM556 252h-43v128h43q26 0 45 -18.5t19 -45t-19 -45.5t-45 -19zM824 140h-44v240h37q8 0 13.5 6t5.5 14t-5.5 14t-13.5 6h-114q-8 0 -13.5 -6t-5.5 -14t5.5 -14
t13.5 -6h37v-240h-44q-8 0 -13.5 -6t-5.5 -14t5.5 -14t13.5 -6h128q8 0 14 6t6 14t-6 14t-14 6zM211 603q19 0 33 13.5t14 32.5t-14 33t-33 14t-32.5 -14t-13.5 -33t13.5 -32.5t32.5 -13.5zM211 666q7 0 12 -5t5 -12t-5 -12t-12 -5t-12 5t-5 12t5 12t12 5zM321.5 603
q19.5 0 33 13.5t13.5 32.5t-13.5 33t-33 14t-33 -14t-13.5 -33t13.5 -32.5t33 -13.5zM321.5 666q7.5 0 12.5 -5t5 -12t-5 -12t-12.5 -5t-12 5t-4.5 12t4.5 12t12 5zM432 603q19 0 32.5 13.5t13.5 32.5t-13.5 33t-32.5 14t-33 -14t-14 -33t14 -32.5t33 -13.5zM432 666
q7 0 12 -5t5 -12t-5 -12t-12 -5t-12 5t-5 12t5 12t12 5z" />
    <glyph glyph-name="business" unicode="&#xe669;" 
d="M186 773q0 7 4.5 11.5t11.5 4.5h613q7 0 11.5 -4.5t4.5 -11.5v-54h43v54q0 24 -17.5 41.5t-41.5 17.5h-613q-24 0 -41.5 -17.5t-17.5 -41.5v-57h43v57v0zM831 20q0 -7 -4.5 -11.5t-11.5 -4.5h-613q-7 0 -11.5 4.5t-4.5 11.5v420h-43v-420q0 -25 17.5 -42t41.5 -17h613
q24 0 41.5 17t17.5 42v420h-43v-420zM228 391v-301q0 -24 17.5 -41.5t41.5 -17.5h127q24 0 41 17.5t17 41.5v301h-42v-301q0 -7 -5 -11.5t-11 -4.5h-127q-7 0 -11.5 4.5t-4.5 11.5v301h-43zM545 391v-199q0 -24 17 -41.5t41 -17.5h127q25 0 42 17.5t17 41.5v199h-43v-199
q0 -7 -4.5 -11.5t-11.5 -4.5h-127q-6 0 -11 4.5t-5 11.5v199h-42zM922 701q-9 0 -15.5 -6.5t-6.5 -14.5v-152q0 -15 -11 -26t-26 -11t-25.5 9.5t-12.5 22.5q1 3 1 5h-1v152q0 8 -6 14.5t-15 6.5t-15.5 -6.5t-6.5 -14.5v-152v0q0 -2 1 -5q-2 -13 -13 -22.5t-25 -9.5
q-15 0 -26.5 11t-11.5 26v0v152q0 8 -6.5 14.5t-15 6.5t-15 -6.5t-6.5 -14.5v-152q0 -2 1 -3q-2 -15 -12.5 -24.5t-25.5 -9.5t-26.5 11t-11.5 26v0v152q0 8 -6.5 14.5t-15 6.5t-15 -6.5t-6.5 -14.5v-152q0 -2 1 -3q-2 -15 -12.5 -24.5t-25.5 -9.5q-16 0 -27 11t-11 26v0v152
q0 8 -6.5 14.5t-15 6.5t-15 -6.5t-6.5 -14.5v-152q0 -15 -11 -26t-26.5 -11t-26.5 11t-11 26v152q0 8 -6.5 14.5t-15 6.5t-15 -6.5t-6.5 -14.5v-152q0 -15 -11 -26t-26.5 -11t-26.5 11t-11 26v152q0 8 -6.5 14.5t-15 6.5t-15 -6.5t-6.5 -14.5v-152q0 -15 -11 -26t-26.5 -11
t-26.5 11t-11 26v152q0 8 -6.5 14.5t-15.5 6.5t-15 -6.5t-6 -14.5v-152v0q0 -33 23.5 -56.5t56.5 -23.5q35 0 59 26q24 -26 59.5 -26t58.5 26q24 -26 59 -26q36 0 60 26q24 -26 59 -26t59 26q24 -26 59 -26t59 26q24 -26 59 -26t59 26q24 -26 59 -26q33 0 56.5 23.5
t23.5 56.5v0v152q0 8 -6 14.5t-15 6.5z" />
    <glyph glyph-name="sidebar11" unicode="&#xe663;" 
d="M564 669v0q0 -22 15 -37t36.5 -15t36.5 15t15 37v0v0q0 21 -15 36.5t-36.5 15.5t-36.5 -15.5t-15 -36.5v0v0zM874 850h-724q-22 0 -37 -15t-15 -37v-828q0 -22 15 -37t37 -15h724q22 0 37 15t15 37v828q0 22 -15 37t-37 15zM874 -30h-724v828h724v-828zM693 513l-77 -103
l-208 207l-207 -311h622zM201 229h363v-52h-363v52zM201 99h622v-52h-622v52z" />
    <glyph glyph-name="sidebar9" unicode="&#xe664;" 
d="M516 544q-3 0 -6 1l-356 64q-11 2 -18.5 10.5t-7.5 20.5v96q0 40 28 68t68 28h576q40 0 68 -28t28 -68v-96q0 -12 -7.5 -20.5t-18.5 -10.5l-348 -64q-3 -1 -6 -1zM192 667l324 -58l316 58v69q0 13 -9.5 22.5t-22.5 9.5h-576q-13 0 -22.5 -9.5t-9.5 -22.5v-69zM800 -64
h-576q-40 0 -68 28t-28 68v480q0 13 9.5 22.5t22.5 9.5t22.5 -9.5t9.5 -22.5v-480q0 -13 9.5 -22.5t22.5 -9.5h576q13 0 22.5 9.5t9.5 22.5v480q0 13 9.5 22.5t22.5 9.5t22.5 -9.5t9.5 -22.5v-480q0 -40 -28 -68t-68 -28zM608 256q13 0 22.5 9.5t9.5 22.5t-9.5 22.5
t-22.5 9.5h-52l76 73q10 10 10 23t-9 22.5t-22.5 9.5t-22.5 -9l-77 -73l-73 73q-9 9 -22.5 9t-23 -9.5t-9.5 -22.5t10 -22l74 -74h-51q-14 0 -23 -9.5t-9 -22.5t9 -22.5t23 -9.5h64v-32h-64q-14 0 -23 -9.5t-9 -22.5t9 -22.5t23 -9.5h64v-64q0 -14 9.5 -23t22.5 -9t22.5 9
t9.5 23v64h64q13 0 22.5 9.5t9.5 22.5t-9.5 22.5t-22.5 9.5h-64v32h64z" />
    <glyph glyph-name="sidebar10" unicode="&#xe66a;" 
d="M776 400.5q0 -9.5 7 -16t16.5 -6.5t16 6.5t6.5 16t-6.5 16.5t-16 7t-16.5 -7t-7 -16.5zM825 306h-626q-9 0 -16 -6.5t-7 -16.5t7 -16.5t16 -6.5h626q9 0 16 6.5t7 16.5t-7 16.5t-16 6.5zM619 695h-213q-10 0 -16.5 -6.5t-6.5 -16.5t6.5 -16.5t16.5 -6.5h213q10 0 17 6.5
t7 16.5t-7 16.5t-17 6.5zM619 614h-213q-10 0 -16.5 -6.5t-6.5 -16.5t6.5 -16.5t16.5 -6.5h213q10 0 17 6.5t7 16.5t-7 16.5t-17 6.5zM887 517h-111v197q0 34 -24.5 58t-58.5 24h-359q-34 0 -58.5 -24t-24.5 -58v-197h-114q-34 0 -58.5 -24.5t-24.5 -58.5v-240
q0 -34 24.5 -58.5t58.5 -24.5h114v-26q0 -35 24.5 -59t58.5 -24h359q34 0 58.5 24t24.5 59v26h111q34 0 58.5 24.5t24.5 58.5v240q0 34 -24.5 58.5t-58.5 24.5zM298 714q0 15 10.5 25.5t25.5 10.5h359q15 0 25.5 -10.5t10.5 -25.5v-197h-431v197zM729 85q0 -15 -10.5 -25.5
t-25.5 -10.5h-359q-15 0 -25.5 10.5t-10.5 25.5v60q0 15 10.5 25.5t25.5 10.5h359q15 0 25.5 -10.5t10.5 -25.5v-60zM923 194q0 -15 -10.5 -25.5t-25.5 -10.5h-112q-5 30 -28 49.5t-54 19.5h-359q-30 0 -53.5 -19.5t-28.5 -49.5h-115q-15 0 -25.5 10.5t-10.5 25.5v240
q0 15 10.5 25.5t25.5 10.5h750q15 0 25.5 -10.5t10.5 -25.5v-240z" />
    <glyph glyph-name="sidebar13" unicode="&#xe66c;" 
d="M384 170h43v43h-43v-43zM213 256h342v299h-342v-299zM256 512h256v-213h-256v213zM298 170h43v43h-43v-43zM597 256h43v43h-43v-43zM448 0h128q10 0 15.5 6t5.5 15.5t-5.5 15.5t-15.5 6h-128q-10 0 -15.5 -6t-5.5 -15.5t5.5 -15.5t15.5 -6zM213 170h43v43h-43v-43z
M768 256h43v43h-43v-43zM768 341h43v43h-43v-43zM768 427h43v42h-43v-42zM597 512h214v43h-214v-43zM853 640h-149v85h64q18 0 30.5 13t12.5 30v43q0 17 -12.5 30t-30.5 13h-256q-18 0 -30.5 -13t-12.5 -30v-43q0 -17 12.5 -30t30.5 -13h64v-85h-405q-18 0 -30.5 -12.5
t-12.5 -29.5v-641q0 -17 12.5 -30t30.5 -13h682q18 0 30.5 13t12.5 30v641q0 17 -12.5 29.5t-30.5 12.5zM555 768h-43v43h43v-43zM597 811h171v-43h-171v43zM661 725v-85h-42v85h42zM853 -43h-682v128h682v-128zM853 128h-682v470h682v-470zM683 256h43v43h-43v-43zM597 427
h43v42h-43v-42zM726 469h-43v-42h43v42zM683 170h128v43h-128v-43zM597 341h43v43h-43v-43zM683 341h43v43h-43v-43z" />
    <glyph glyph-name="sidebar14" unicode="&#xe66e;" 
d="M890 404h-101v-416l-48 -49h-347l-172 172v283h-111l-40 39v237l40 42h789l30 -42v-227zM394 2v79l-20 20h-81zM673.5 672q-14.5 0 -25 -10t-10.5 -24.5t10.5 -24.5t25 -10t24.5 10t10 24.5t-10 24.5t-24.5 10zM784 672q-15 0 -25 -10t-10 -24.5t10 -24.5t25 -10t25 10
t10 24.5t-10 24.5t-25 10zM819 563h-602q-14 0 -24.5 -10.5t-10.5 -24.5t10.5 -24.5t24.5 -10.5h56v-352h111l40 -40v-125h305l19 22l1 495h45q15 0 25 10.5t10 24.5q0 5 1 13t1 12t-2.5 7t-9.5 3zM693 483v-10q0 -8 -6 -14t-14 -6h-343q-9 0 -14.5 6t-5.5 14v10q0 8 5.5 14
t14.5 6h343q8 0 14 -6t6 -14zM330 394h343q8 0 14 -6t6 -14v-10q0 -9 -6 -14.5t-14 -5.5h-343q-9 0 -14.5 5.5t-5.5 14.5v10q0 8 5.5 14t14.5 6zM471 197h202q8 0 14 -6t6 -14v-10q0 -8 -6 -14t-14 -6h-202q-8 0 -14 6t-6 14v10q0 8 6 14t14 6zM333 299h269q9 0 16 -5.5
t7 -14.5v-10q0 -8 -7 -14t-16 -6h-269q-10 0 -17 6t-7 14v10q0 8 7 14t17 6zM481 87h192q8 0 14 -5.5t6 -14.5v-10q0 -8 -6 -13.5t-14 -5.5h-192q-8 0 -14 5.5t-6 13.5v10q0 9 6 14.5t14 5.5zM192 782l40 40h547l40 -40v-40h-627v40z" />
    <glyph glyph-name="sidebar15" unicode="&#xe670;" 
d="M947 705q-13 11 -30 11q-3 0 -6 -1l-208 -28q-17 -2 -28 -14t-11 -28v-56h-112q46 13 75.5 50t29.5 84q0 58 -43.5 99.5t-105 41.5t-105 -41.5t-43.5 -99.5q0 -47 29 -84t75 -50h-209q46 13 75.5 50t29.5 84q0 58 -44 99.5t-105.5 41.5t-105 -41.5t-43.5 -99.5
q0 -48 30 -85t77 -50q-17 -2 -28.5 -13.5t-11.5 -28.5v-141q0 -17 13 -29.5t32 -12.5h74v-141q0 -18 13 -30.5t32 -12.5h8l-146 -214q-5 -7 -3 -16t9 -13q6 -4 13 -4v0q12 0 18 10l162 237h43v-254q0 -9 6.5 -15t15.5 -6t15.5 6t6.5 15v254h43l162 -237q6 -10 18 -10
q7 0 13 4q7 4 9 13t-3 16l-146 214h8q19 0 32 12.5t13 30.5v141h74v-57q0 -15 11 -27t28 -15l208 -28h6q17 0 30 10q15 13 15 32v395q0 20 -15 32zM404 723q0 41 30.5 70t73.5 29t73.5 -29t30.5 -70t-30.5 -70t-73.5 -29t-73.5 29t-30.5 70zM107 723q0 41 30.5 70t73.5 29
t73.5 -29t30.5 -70t-30.5 -70t-73.5 -29t-73.5 29t-30.5 70zM545 222h-252v141h252v-141zM664 405h-490v141h490v-141zM917 278l-208 28v339l208 28v-395zM211 433h67q7 0 7 7.5t-7 7.5h-60v56q0 7 -7.5 7t-7.5 -7v-64q0 -7 8 -7zM322 433h30q8 0 8 7.5t-8 7.5h-30
q-7 0 -7 -7.5t7 -7.5z" />
    <glyph glyph-name="sidebar16" unicode="&#xe672;" 
d="M874 366q35 127 35 177q0 85 -45.5 159t-122.5 117.5t-166 43.5h-4q-90 -1 -170.5 -45.5t-129 -119t-50.5 -157.5q-1 -6 0 -19v-2.5v-3.5q-90 -106 -90 -149q0 -51 51 -76q13 -6 64 -10l8 -1l-1 -95q1 -33 25.5 -57t58.5 -24h80l-1 -168q0 -16 13 -25q8 -5 17 -5
q6 0 12 2l369 147q11 4 16 14t2 21q-1 6 -3 21t-4 53.5t6 75.5q6 39 30 126zM816 382q-25 -90 -32 -132q-12 -74 -2 -148l-306 -122l1 154v0q0 12 -9 21t-21 9v0h-111q-9 0 -15.5 6.5t-7.5 15.5l1 122q0 12 -8 20.5t-20 9.5l-36 3q-36 2 -42 5q-17 7 -17 21q2 24 79 114l3 3
q8 10 8 38v9v6q1 67 41.5 128.5t108 99t141.5 38.5h3q111 0 192 -77t82 -183q0 -42 -33 -161zM565 750q-57 0 -99 -33.5t-42 -79.5q0 -17 5.5 -29.5t18 -19.5t23.5 -11.5t31.5 -6.5t32.5 -2.5t35 -0.5t35 0.5t32.5 2.5t32 6.5t23.5 11.5t17.5 19.5t5.5 29.5q0 47 -44 80
t-107 33zM570 627q-79 0 -86 10q0 19 24.5 36t56.5 17q38 0 64.5 -17t27.5 -37q-10 -9 -87 -9z" />
    <glyph glyph-name="debug" unicode="&#xe619;" 
d="M733 258q-1 23 -17 23h-59.5h-95h-60.5q-13 0 -15 -16q-2 -14 0 -33q1 -15 13 -17q8 -1 12 -1h195q17 0 22 7.5t5 32.5v4zM121 727v-677h784v677h-784zM187 117v543h652v-543h-652zM480 391l-120 119q-9 9 -21.5 9t-21.5 -9l-5 -5l-7 -12q-7 -18 7 -32l72 -70q9 -9 9 -22
t-9 -22l-73 -77q-8 -9 -8 -20q0 -14 10 -23l5 -5v0q1 0 1.5 -0.5l0.5 -0.5l10 -5q19 -6 32 9l118 122q9 9 9 22t-9 22z" />
    <glyph glyph-name="sidebar17" unicode="&#xe61b;" 
d="M875 462v21q0 125 -78.5 213.5t-190.5 88.5q-76 0 -139.5 -43.5t-97.5 -116.5q-28 10 -54 10q-65 0 -110.5 -51.5t-45.5 -123.5q0 -12 4 -37q-61 -23 -99 -82t-38 -133q0 -93 59 -159t141 -66h558q93 0 158 73.5t65 176.5q3 75 -34 137.5t-98 91.5zM788 31v0h-560
q-64 0 -110 51.5t-46 123.5q0 56 29.5 102t78.5 65l37 14l-8 44q-2 8 -2 27q0 51 33 88t79 37q22 0 37 -8l37 -15l19 40q29 62 82 98.5t116 36.5q92 0 157.5 -73.5t65.5 -176.5v-17l-2 -35l29 -15q49 -23 78.5 -73.5t29.5 -109.5q-1 -84 -53.5 -144t-126.5 -60zM519 314
q39 0 67 31.5t28 74.5q0 45 -28 76t-67 31t-67 -31.5t-28 -75t28 -75t67 -31.5zM519 485q24 0 41 -19t17 -45.5t-17 -45.5t-41 -19t-40.5 19t-16.5 45.5t16.5 45.5t40.5 19zM695 198q0 14 -3 20q-5 13 -14.5 26.5t-32.5 31.5t-54 28q-15 6 -33 -6q-18 -14 -41 -14t-41 14
q-14 13 -33 6q-43 -14 -67.5 -39t-32.5 -47q-4 -12 -4 -20v-61q0 -19 12 -32.5t29 -13.5h278q17 0 28.5 14t8.5 32v61zM662 137q0 -4 -4 -4h-278q-4 0 -4 4v63q24 47 80 64v0h2q26 -20 60.5 -20t61.5 20h4q53 -17 78 -66v-61zM786 248q-17 19 -43.5 38.5t-45.5 27.5
q29 14 42 50.5t3 72.5t-34.5 55.5t-58.5 19.5q-8 0 -13.5 -6.5t-5.5 -14.5q0 -9 6 -15t13 -6q45 0 58 -45q6 -21 -2 -42t-23 -29q-9 -5 -15.5 -16t-6.5 -24q0 -14 7.5 -25.5t18.5 -15.5q13 -5 35.5 -21.5t38.5 -33.5q18 -19 21 -54h-32q-8 0 -13 -5.5t-5 -15t5 -15t13 -5.5
h30q15 0 26 12q12 14 9 29q0 49 -28 84zM289 164h-31q2 35 20 54q16 17 38.5 33.5t35.5 21.5q11 4 18.5 15.5t7.5 25.5q0 13 -6 24t-16 16q-15 8 -23 29t-1 42q13 45 57 45q8 0 13.5 6t5.5 15q0 8 -5.5 14.5t-13.5 6.5q-33 0 -58 -19.5t-35 -55.5q-9 -36 3.5 -72.5
t41.5 -50.5q-19 -8 -45.5 -27.5t-43.5 -38.5v0q-27 -34 -30 -84q0 -16 11.5 -28.5t25.5 -12.5h30q8 0 13.5 5.5t5.5 15t-5.5 15t-13.5 5.5z" />
    <glyph glyph-name="info" unicode="&#xe61c;" 
d="M87 606v-478l252 240zM639 367h-1l304 298q-12 25 -39 25h-773q-27 0 -38 -24l303 -299q50 -32 121.5 -32t122.5 32zM694 368l252 -240v478zM654 330v0q-57 -36 -137.5 -36t-137.5 36l-12 11l-275 -272q12 -23 38 -23h773q26 0 38 22l-275 273z" />
    <glyph glyph-name="gift" unicode="&#xe61d;" 
d="M930 366h-364v53h312v103h-727v-103h311v-53h-363v208h831v-208zM203 30h622v-53h-622v53zM177 392h52v-415h-52v415zM800 392h52v-415h-52v415zM592 -23h-156v597h156v-597zM489 30h51v492h-51v-492zM495 533q-95 0 -144 49q-45 45 -58 95q-16 58 17 91q21 22 57 22
q65 0 128 -63q17 -17 28.5 -41t15.5 -44t5 -41.5t0.5 -30t-0.5 -13.5l-3 -21l-20 -2q-10 -1 -26 -1zM367 738q-14 0 -21 -7q-11 -11 -3 -40q10 -37 44 -72q34 -34 106 -34q-1 71 -35 105q-21 22 -46 35t-45 13zM545 533v0q-17 0 -26 1l-20 2l-3 21q0 5 -0.5 13.5t0.5 30
t5 41.5t15.5 44t28.5 41q63 63 128 63q36 0 57 -22q33 -33 17 -91q-13 -50 -58 -94q-49 -50 -144 -50zM673 738q-20 0 -45 -13t-46 -35q-34 -34 -35 -105q72 0 106 34q34 35 44 72q8 29 -3 40q-7 7 -21 7z" />
    <glyph glyph-name="sidebar8" unicode="&#xe675;" 
d="M437 757h-272q-12 0 -21 -8.5t-9 -21.5v-264q0 -12 9 -21t21 -9h272q13 0 21.5 9t8.5 21v264q0 13 -9 21.5t-21 8.5zM874 697h-302q-6 0 -10.5 -4.5t-4.5 -10.5v-31q0 -6 4.5 -10.5t10.5 -4.5h302q6 0 10.5 4.5t4.5 10.5v31q0 6 -4.5 10.5t-10.5 4.5zM874 546h-302
q-6 0 -10.5 -4.5t-4.5 -10.5v-30q0 -7 4.5 -11.5t10.5 -4.5h302q6 0 10.5 4.5t4.5 11.5v30q0 6 -4.5 10.5t-10.5 4.5zM437 335h-272q-12 0 -21 -9t-9 -21v-264q0 -13 9 -21.5t21 -8.5h272q13 0 21.5 8.5t8.5 21.5v264q0 12 -9 21t-21 9zM874 274h-302q-6 0 -10.5 -4.5
t-4.5 -10.5v-30q0 -6 4.5 -10.5t10.5 -4.5h302q6 0 10.5 4.5t4.5 10.5v30q0 7 -4.5 11t-10.5 4zM874 124h-302q-6 0 -10.5 -4.5t-4.5 -11.5v-30q0 -6 4.5 -10.5t10.5 -4.5h302q6 0 10.5 4.5t4.5 10.5v30q0 7 -4.5 11.5t-10.5 4.5z" />
    <glyph glyph-name="refresh" unicode="&#xe61f;" 
d="M890 721q-12 0 -20.5 -8.5t-8.5 -20.5v-109q-54 89 -145 142t-199 53q-109 0 -201.5 -53.5t-146 -146t-53.5 -201.5t53.5 -201.5t146 -146t201.5 -53.5v0q76 0 165 40.5t139 98.5q8 9 7 20.5t-10 19.5q-8 7 -19 7q-13 0 -22 -10q-49 -57 -117 -88t-143 -31
q-93 0 -172.5 46t-125.5 125.5t-46 172.5t46 172.5t125.5 125.5t172.5 46t172.5 -46t125.5 -125.5t46 -172.5q0 -12 8.5 -20.5t20.5 -8.5t20 8.5t8 20.5v315q0 12 -8 20.5t-20 8.5z" />
    <glyph glyph-name="rangeslider" unicode="&#xe620;" 
d="M81 603h874v-58h-874v58zM81 435h874v-58h-874v58zM81 268h874v-59h-874v59z" />
    <glyph glyph-name="delete" unicode="&#xe621;" 
d="M774 558h-20v-507h-67v507h-111v-507h-66v507h-111v-507h-67v507h-42h-91v-530q0 -37 26.5 -62.5t64.5 -25.5h484q38 0 64.5 25.5t26.5 62.5v530q0 2 -10.5 2t-36 -1t-44.5 -1zM909 717h-199v54q0 22 -31 39.5t-58 17.5h-178q-27 0 -58 -17.5t-31 -39.5v-54h-199
q-19 0 -32 -13t-13 -31.5t13 -31.5t32 -13h754q18 0 31.5 13t13.5 31.5t-13.5 31.5t-31.5 13zM621 717h-178v22h178v-22v0z" />
    <glyph glyph-name="menu-more" unicode="&#xe622;" 
d="M863 697h-702q-16 0 -26.5 -10t-10.5 -25v-31q0 -14 10.5 -24t26.5 -10h702q16 0 26.5 10t10.5 24v31q0 15 -10.5 25t-26.5 10zM863 440h-702q-16 0 -26.5 -10t-10.5 -24v-31q0 -15 10.5 -24.5t26.5 -9.5h702q16 0 26.5 9.5t10.5 24.5v31q0 14 -10.5 24t-26.5 10z
M863 183h-702q-16 0 -26.5 -10t-10.5 -24v-31q0 -14 10.5 -24t26.5 -10h702q16 0 26.5 10t10.5 24v31q0 14 -10.5 24t-26.5 10z" />
    <glyph glyph-name="del" unicode="&#xe608;" horiz-adv-x="1025" 
d="M512 896q-104 0 -199 -40.5t-163.5 -109t-109 -163.5t-40.5 -199t40.5 -199t109 -163.5t163.5 -109t199 -40.5t199 40.5t163.5 109t109 163.5t40.5 199t-40.5 199t-109 163.5t-163.5 109t-199 40.5zM832 384v0q0 -14 -10 -24.5t-25 -10.5v0h-571v0q-14 0 -24.5 10.5
t-10.5 25t10.5 24.5t24.5 10v0h571v0q15 0 25 -10t10 -25z" />
    <glyph glyph-name="browse" unicode="&#xe6e3;" 
d="M197 2h-57q-23 0 -39.5 17t-16.5 42v49q0 8 5.5 13.5t13.5 5.5t13.5 -5.5t5.5 -13.5v-40v0q0 -12 8 -20.5t20 -8.5h47q8 0 13.5 -6t5.5 -14v0q0 -8 -5.5 -13.5t-13.5 -5.5v0zM902 617q-8 0 -13.5 5.5t-5.5 13.5v1v39v0q0 12 -8 20.5t-20 8.5h-47q-8 0 -13.5 6t-5.5 13v1
v0q0 8 5.5 13.5t13.5 5.5h56q24 0 40.5 -17t16.5 -41v-50v0q0 -8 -5.5 -13.5t-13.5 -5.5v0zM197 705h-47q-12 0 -20 -8.5t-8 -20.5v0v-39v-1q0 -8 -5.5 -13.5t-13.5 -5.5t-13.5 5.5t-5.5 13.5v1v49q0 24 16.5 41t39.5 17h57q8 0 13.5 -5.5t5.5 -13.5v0v-1q0 -7 -5.5 -13
t-13.5 -6v0zM864 2h-56q-8 0 -13.5 5.5t-5.5 13.5v0q0 8 5.5 14t13.5 6h47q12 0 20 8.5t8 20.5v0v40v0q0 8 5.5 13.5t13.5 5.5t13.5 -5.5t5.5 -13.5v0v-49q0 -25 -16.5 -42t-40.5 -17zM506 559q-38 0 -76 -10.5t-68.5 -27.5t-57.5 -37.5t-47.5 -41t-35 -37t-22 -27.5
l-7.5 -11q6 -7 15.5 -20t41 -46t66 -58.5t87 -46t105 -20.5t104.5 20t88 47.5t64.5 56.5t43 48l14.5 19q-6 8 -15.5 21t-41 46t-66 58t-87 46t-105.5 21zM506.5 241q-51.5 0 -88 37.5t-36.5 90t36.5 89.5t88 37t88 -37t36.5 -89.5t-36.5 -90t-88 -37.5zM444 368
q0 -26 18 -45t44 -19t44.5 18.5t18.5 45t-18.5 45t-44.5 18.5t-44 -18.5t-18 -44.5v0z" />
    <glyph glyph-name="hands" unicode="&#xe625;" 
d="M853 477h-226q18 65 24 119.5t2.5 88.5t-13.5 60t-21.5 39t-24.5 21t-19 9.5t-8 1.5q-22 0 -34.5 -8t-15 -17.5t-3.5 -20t-2 -12.5q0 -44 -17 -89.5t-41.5 -78.5t-49.5 -59.5t-42 -40.5l-17 -13v-448q0 -29 29 -44.5t55 -15.5h339q8 0 17.5 8.5t16.5 21t12.5 24.5t8.5 21
l2 8q38 127 59 219.5t23 121.5l2 29q0 49 -47 54zM252 476h-135q-12 0 -19.5 -6.5t-7.5 -13.5l-1 -7l28 -452q0 -12 7 -19.5t14 -8.5h7h117q11 0 17 4.5t7 9.5v5v454q0 16 -8.5 24.5t-16.5 9.5h-9v0z" />
    <glyph glyph-name="sold" unicode="&#xe628;" 
d="M768 671h-89q-16 55 -62 90.5t-104.5 35.5t-105 -35.5t-61.5 -90.5h-89q-32 0 -55 -22.5t-23 -55.5v-533q0 -33 23 -55.5t55 -22.5h511q32 0 54.5 22.5t22.5 55.5v533v1q0 32 -22.5 54.5t-54.5 22.5v0zM512 740q35 0 63.5 -19t42.5 -50h-211q12 28 43 48.5t62 20.5v0z
M737 412l-259 -259q-1 0 -2 -1l-2 -2q-8 -6 -18 -6q-11 0 -19 8l-139 144q-8 8 -8 19.5t8 19.5t19.5 8t19.5 -8l120 -125l241 241q8 8 19.5 8t19.5 -8t8 -19.5t-8 -19.5v0z" />
    <glyph glyph-name="data-count" unicode="&#xe60e;" 
d="M391 386q0 24 -23 33.5t-46 -0.5t-23 -33v-373h92v373zM572 510q0 25 -23 35t-46 -0.5t-23 -34.5v-497h92v497zM672 635v-622h92v622q0 25 -23 35t-46 -0.5t-23 -34.5zM145 13v759q0 18 -16 25t-32 0t-16 -25v-821h823q15 0 21.5 15.5t0.5 31t-22 15.5h-759z" />
    <glyph glyph-name="king" unicode="&#xe632;" 
d="M59 554q1 1 2 3.5t1 4.5q6 16 19.5 26.5t31.5 12.5q16 1 31 -7.5t22 -23.5q17 -34 -7 -63l-6 -6q19 -11 61 -37t65 -40q28 -17 47 -28q14 -8 21 5q93 168 144 262q-34 17 -36 51q-1 25 17 43q18 17 43 15.5t41 -20.5q17 -22 11 -46t-34 -43q12 -23 37 -68
q19 -34 104 -190q6 -11 11.5 -12t16.5 5l161 99q1 0 3.5 2t4.5 3q-18 17 -19 39q-1 21 12 38t34 21q22 3 40 -8t25 -32q0 -1 1 -3.5t1 -3.5v-19q-15 -47 -60 -47q-2 -4 -4 -10q-15 -54 -46.5 -162t-47.5 -161q-3 -11 -7.5 -14.5t-15.5 -3.5h-543q-11 0 -16 3.5t-8 14.5
q-9 31 -35.5 122t-40.5 140q-4 14 -12 40t-9 31q-37 0 -54 30q-1 2 -6 17q-1 7 -1 20zM59 554zM512 80h253q17 0 29.5 -11t14 -27t-8 -29t-25.5 -17q-4 -1 -10 -1h-507q-15 0 -26 8t-15 21q-5 13 -1 26.5t16 20.5q13 8 28 8q17 1 252 1zM512 80z" />
    <glyph glyph-name="account" unicode="&#xe60f;" 
d="M483 116h59v-113h-59v113zM331 2.5q0 12.5 8.5 21t20.5 8.5h304q12 0 21 -8.5t9 -21t-9 -21t-21 -8.5h-304q-12 0 -20.5 8.5t-8.5 21zM624 498h186v58h-186v-58zM624 382h107v58h-107v-58zM624 613h186v58h-186v-58zM844 785h-663q-35 0 -59.5 -24t-24.5 -59v-526
q0 -34 24.5 -58.5t59.5 -24.5h30q9 -1 18 0h10h335h16h253q35 0 59.5 24.5t24.5 58.5v526q1 35 -24 59t-59 24zM869 177q0 -11 -7.5 -18t-17.5 -7h-166v0h-70h-4h-391h-4h-28q-11 0 -18.5 7.5t-7.5 18.5v149h1v375q0 11 7.5 18.5t17.5 7.5h663q11 0 18.5 -7.5t7.5 -18.5
v-525h-1zM626 218v2q0 2 -1 6q-8 59 -44 105.5t-90 68.5q32 22 50.5 55.5t18.5 72.5q0 65 -46.5 110.5t-111.5 45.5t-111.5 -45.5t-46.5 -110.5q0 -39 18.5 -72.5t50.5 -55.5q-53 -22 -89 -68t-45 -104q-1 -3 -1 -8v-2q0 -9 6.5 -15.5t15.5 -6.5t16 6.5t7 15.5v1v0
q8 64 57 108t116 47q1 0 2.5 -0.5t2.5 -0.5q4 0 6 1q67 -2 116 -46.5t57 -108.5v0v-1q0 -9 6.5 -15.5t16.5 -6.5t16.5 6.5t6.5 15.5zM402.5 417q-46.5 0 -79.5 32.5t-33 78.5t33 78t79 32q47 0 80 -32t33 -78t-33 -78.5t-79.5 -32.5z" />
  </font>
</defs>
</svg>
